<svg width="31.688782" height="24.975830" viewBox="0 0 31.6888 24.9758" fill="none" xmlns="http://www.w3.org/2000/svg" xmlns:xlink="http://www.w3.org/1999/xlink">
	<desc>
			Created with Pixso.
	</desc>
	<defs>
		<linearGradient x1="0.039595" y1="0.349367" x2="30.677725" y2="0.349367" id="paint_linear_1_175_0" gradientUnits="userSpaceOnUse">
			<stop stop-color="#7A5FFF"/>
			<stop offset="1.000000" stop-color="#00E824"/>
		</linearGradient>
	</defs>
	<path id="Vector" d="M20.07 14.89L20.13 14.64L21.91 20.09L21.7 20.4L21.7 20.37L21.63 20.49C16.52 27.29 5.67 25.98 1.66 19.05C-2.6 11.7 1.72 1.99 10.05 0.24C10.91 0.09 11.8 0 12.69 0C16.64 0 20.81 1.71 22.92 5.17L24.58 0.67L29.72 0.67L25.83 11.48L28.34 18.47C28.62 19.17 29.39 19.57 30.09 19.39L30.31 19.33L31.68 23.95L30.03 24.38C27.67 24.97 25.25 23.77 24.36 21.5C24.15 21.1 23.93 20.68 23.78 20.22L22.86 17.8L22.8 17.7L22.8 17.67L20.75 11.45C19.61 8.02 17.5 6.37 15.81 5.69C14.89 5.26 13.85 5.05 12.75 5.05C8.49 5.05 5.06 8.45 5.06 12.62C5.06 16.78 8.49 20.19 12.75 20.19C16.18 20.19 19.09 17.95 20.07 14.89Z" fill="url(#paint_linear_1_175_0)" fill-opacity="1.000000" fill-rule="evenodd"/>
</svg>
