<svg width="17.265015" height="30.000000" viewBox="0 0 17.265 30" fill="none" xmlns="http://www.w3.org/2000/svg" xmlns:xlink="http://www.w3.org/1999/xlink">
	<desc>
			Created with Pixso.
	</desc>
	<defs/>
	<path id="Vector" d="M5.52 15.01L16.63 26.25C17.05 26.66 17.24 27.12 17.26 27.75C17.28 28.37 17.09 28.91 16.63 29.37C16.21 29.79 15.68 30 15.04 30C14.39 30 13.86 29.79 13.44 29.37L0.68 16.61C0.22 16.15 0 15.62 0 15.01C0 14.4 0.22 13.87 0.68 13.42L13.44 0.65C13.86 0.23 14.38 0.02 15.01 0C15.64 -0.02 16.18 0.2 16.63 0.65C17.05 1.07 17.26 1.6 17.26 2.25C17.26 2.89 17.05 3.43 16.63 3.84L5.52 15.01Z" fill="#FFFFFF" fill-opacity="1.000000" fill-rule="nonzero"/>
	<path id="Vector" d="M5.52 15.01L16.63 26.25C17.05 26.66 17.24 27.12 17.26 27.75C17.28 28.37 17.09 28.91 16.63 29.37C16.21 29.79 15.68 30 15.04 30C14.39 30 13.86 29.79 13.44 29.37L0.68 16.61C0.22 16.15 0 15.62 0 15.01C0 14.4 0.22 13.87 0.68 13.42L13.44 0.65C13.86 0.23 14.38 0.02 15.01 0C15.64 -0.02 16.18 0.2 16.63 0.65C17.05 1.07 17.26 1.6 17.26 2.25C17.26 2.89 17.05 3.43 16.63 3.84L5.52 15.01Z" fill="#000000" fill-opacity="0.200000" fill-rule="nonzero"/>
</svg>
