<svg width="59.079956" height="29.967529" viewBox="0 0 59.08 29.9675" fill="none" xmlns="http://www.w3.org/2000/svg" xmlns:xlink="http://www.w3.org/1999/xlink">
	<desc>
			Created with Pixso.
	</desc>
	<defs/>
	<path id="Vector" d="M42.75 13.57C42.57 13.28 42.45 12.95 42.41 12.61C42.39 12.48 42.37 12.36 42.36 12.23C42.35 12 42.4 11.78 42.45 11.57C42.55 11.15 42.61 10.73 42.53 10.29C42.44 9.68 42.17 9.11 41.76 8.64C41.57 8.42 41.34 8.26 41.11 8.09C40.84 7.91 40.59 7.71 40.44 7.42C40.42 7.4 40.41 7.38 40.39 7.36C40.25 7.14 40.11 6.91 40.05 6.65C40.04 6.56 40.02 6.47 40 6.38C39.94 6.14 39.9 5.88 39.82 5.64C39.65 5.14 39.33 4.73 38.94 4.38C38.57 4.05 38.12 3.81 37.63 3.71C37.49 3.68 37.36 3.65 37.22 3.61C37.02 3.57 36.82 3.49 36.65 3.38C36.53 3.3 36.41 3.22 36.29 3.14C36.1 3.02 35.93 2.86 35.81 2.66C35.72 2.53 35.62 2.39 35.53 2.25C35.34 1.96 35.09 1.71 34.81 1.52C34.26 1.15 33.66 0.93 33 0.93C32.78 0.94 32.56 0.96 32.35 1C32.18 1.03 32.02 1.06 31.85 1.08C31.63 1.11 31.42 1.06 31.2 1.02C30.89 0.98 30.6 0.87 30.34 0.69C30.24 0.62 30.14 0.56 30.04 0.5C29.9 0.42 29.77 0.33 29.62 0.26C29.23 0.08 28.79 -0.01 28.35 0C27.79 -0.01 27.27 0.11 26.79 0.41C26.67 0.49 26.55 0.57 26.42 0.65C26.3 0.72 26.18 0.79 26.06 0.86C25.92 0.94 25.75 0.97 25.58 0.93C25.39 0.89 25.2 0.86 25.01 0.81C24.56 0.69 24.1 0.68 23.64 0.78C23.01 0.93 22.44 1.2 22 1.69C21.87 1.84 21.75 2 21.63 2.16C21.53 2.28 21.43 2.4 21.32 2.53C21.25 2.62 21.14 2.69 21.01 2.7C20.82 2.73 20.62 2.78 20.42 2.79C19.84 2.84 19.28 3.06 18.82 3.42C18.28 3.84 17.9 4.36 17.72 5.02C17.68 5.15 17.64 5.27 17.6 5.4C17.45 5.89 17.11 6.3 16.66 6.55C16.5 6.64 16.33 6.74 16.16 6.83C15.96 6.95 15.78 7.09 15.62 7.26C14.93 8.01 14.61 8.89 14.76 9.92C14.79 10.15 14.82 10.39 14.76 10.63C14.72 10.81 14.66 10.99 14.62 11.17C14.56 11.37 14.47 11.56 14.34 11.73C14.22 11.89 14.09 12.05 13.97 12.22C13.77 12.48 13.62 12.77 13.54 13.09C13.48 13.28 13.45 13.48 13.42 13.68C13.36 14.25 13.43 14.81 13.69 15.33C13.78 15.5 13.87 15.66 13.95 15.83C14.04 15.98 14.12 16.14 14.14 16.31C14.17 16.54 14.25 16.75 14.24 16.98C14.24 17.08 14.27 17.18 14.27 17.29C14.28 17.51 14.22 17.73 14.17 17.95C14.09 18.27 14.01 18.58 14 18.91C14.02 19.09 14.03 19.26 14.07 19.43C14.17 20.01 14.42 20.55 14.81 20.99C14.99 21.2 15.22 21.37 15.45 21.54C15.69 21.71 15.89 21.93 16.05 22.19C16.21 22.45 16.32 22.74 16.36 23.05C16.4 23.35 16.43 23.65 16.54 23.93C16.92 24.92 17.6 25.6 18.63 25.9C18.84 25.96 19.05 26.01 19.26 26.08C19.55 26.18 19.79 26.37 19.95 26.62C20.04 26.77 20.14 26.93 20.22 27.08C20.5 27.6 20.92 28.02 21.43 28.29C21.86 28.53 22.31 28.69 22.81 28.69C23.04 28.69 23.27 28.67 23.5 28.65C23.72 28.63 23.94 28.6 24.15 28.64C24.27 28.66 24.38 28.69 24.49 28.72C24.78 28.79 25.06 28.88 25.29 29.07C25.4 29.15 25.51 29.23 25.62 29.32C26.05 29.66 26.57 29.88 27.12 29.94C27.74 30.01 28.33 29.94 28.89 29.64C29.06 29.55 29.22 29.46 29.39 29.37C29.55 29.28 29.72 29.21 29.9 29.18C30.1 29.15 30.3 29.12 30.5 29.1C30.57 29.09 30.64 29.09 30.71 29.1C30.94 29.14 31.17 29.18 31.39 29.24C31.83 29.35 32.28 29.4 32.73 29.31C33.54 29.15 34.22 28.77 34.71 28.09C34.74 28.06 34.76 28.03 34.78 28C34.97 27.73 35.22 27.51 35.5 27.33C35.81 27.14 36.13 26.99 36.5 26.95C36.73 26.92 36.95 26.88 37.17 26.82C38.04 26.61 38.98 25.77 39.26 24.81C39.29 24.7 39.32 24.59 39.35 24.48C39.43 24.15 39.54 23.84 39.75 23.55C39.96 23.27 40.19 23 40.5 22.83C40.59 22.77 40.69 22.71 40.78 22.65C40.97 22.54 41.15 22.4 41.31 22.25C41.68 21.87 41.96 21.4 42.11 20.89C42.22 20.55 42.26 20.2 42.23 19.84C42.2 19.62 42.17 19.39 42.15 19.17C42.12 18.97 42.12 18.77 42.16 18.57C42.19 18.42 42.23 18.28 42.26 18.13C42.3 17.97 42.36 17.82 42.45 17.68C42.55 17.53 42.65 17.38 42.75 17.23C42.98 16.92 43.15 16.57 43.25 16.19C43.31 15.95 43.34 15.71 43.34 15.46C43.35 14.98 43.27 14.51 43.05 14.08C42.96 13.91 42.86 13.74 42.75 13.57ZM42.46 15.65C42.42 16.05 42.28 16.42 42.04 16.74C41.91 16.92 41.79 17.1 41.67 17.28C41.56 17.47 41.48 17.67 41.43 17.88C41.41 17.95 41.38 18.01 41.36 18.08C41.35 18.09 41.35 18.11 41.34 18.12C41.32 18.29 41.29 18.45 41.27 18.62C41.24 18.85 41.25 19.08 41.28 19.3C41.31 19.54 41.35 19.77 41.37 20C41.41 20.57 41.04 21.45 40.42 21.85C40.27 21.94 40.11 22.04 39.96 22.14C39.67 22.31 39.42 22.54 39.22 22.82C39.2 22.84 39.17 22.87 39.15 22.89C39.12 22.93 39.08 22.98 39.05 23.02C39.03 23.06 39.02 23.09 39 23.12C38.81 23.36 38.68 23.64 38.6 23.93C38.55 24.09 38.5 24.25 38.46 24.41C38.32 25 37.96 25.42 37.47 25.75C37.22 25.91 36.93 26.01 36.64 26.05C36.39 26.09 36.14 26.12 35.89 26.19C35.72 26.24 35.55 26.31 35.39 26.39C35.31 26.42 35.24 26.46 35.16 26.5C35.14 26.5 35.13 26.51 35.11 26.52C35.02 26.59 34.93 26.66 34.83 26.72C34.61 26.87 34.42 27.05 34.26 27.26C34.16 27.38 34.07 27.5 33.98 27.61C33.69 28.01 33.3 28.25 32.84 28.39C32.63 28.45 32.42 28.48 32.2 28.49C32.01 28.48 31.82 28.45 31.64 28.4C31.39 28.34 31.14 28.28 30.88 28.24C30.7 28.22 30.52 28.24 30.34 28.24C30.3 28.24 30.27 28.25 30.24 28.25C30.18 28.24 30.13 28.24 30.07 28.25C29.79 28.33 29.5 28.34 29.25 28.47C29.07 28.56 28.9 28.65 28.73 28.74C28.52 28.86 28.31 28.98 28.07 29.03C27.39 29.17 26.75 29.09 26.19 28.65C26.02 28.53 25.85 28.4 25.68 28.28C25.47 28.13 25.23 28.02 24.98 27.95C24.93 27.94 24.88 27.92 24.83 27.89C24.81 27.88 24.79 27.87 24.76 27.87C24.6 27.84 24.43 27.8 24.27 27.78C24.04 27.74 23.81 27.74 23.58 27.77C23.39 27.79 23.19 27.81 23 27.82C22.55 27.85 22.15 27.71 21.77 27.49C21.47 27.31 21.22 27.06 21.04 26.76C20.95 26.59 20.85 26.41 20.74 26.24C20.44 25.73 19.95 25.35 19.37 25.2C19.21 25.15 19.06 25.1 18.9 25.07C18.25 24.9 17.8 24.49 17.48 23.92C17.33 23.66 17.29 23.37 17.25 23.08C17.21 22.8 17.17 22.52 17.06 22.26C16.85 21.76 16.57 21.31 16.13 20.97C16.01 20.88 15.89 20.78 15.77 20.69C15.33 20.37 15.08 19.93 14.95 19.41C14.87 19.08 14.87 18.73 14.96 18.39C15.02 18.14 15.08 17.89 15.12 17.64C15.14 17.45 15.14 17.26 15.12 17.07C15.12 17.01 15.11 16.81 15.09 16.64C15.07 16.52 15.06 16.4 15.04 16.3C15.01 15.95 14.86 15.66 14.69 15.36C14.61 15.2 14.53 15.05 14.45 14.89C14.3 14.57 14.24 14.22 14.28 13.88C14.29 13.72 14.31 13.57 14.35 13.42C14.41 13.17 14.52 12.93 14.68 12.72C14.81 12.55 14.94 12.39 15.06 12.22C15.23 11.98 15.37 11.71 15.45 11.44C15.51 11.28 15.53 11.13 15.58 10.98C15.68 10.65 15.67 10.32 15.64 9.99C15.63 9.85 15.62 9.72 15.6 9.58C15.56 9.08 15.71 8.63 15.97 8.22C16.14 7.94 16.39 7.7 16.67 7.54C16.86 7.44 17.05 7.33 17.23 7.22C17.48 7.07 17.7 6.87 17.89 6.65C18.17 6.31 18.37 5.92 18.48 5.5C18.52 5.38 18.56 5.26 18.6 5.13C18.78 4.49 19.57 3.75 20.41 3.68C20.62 3.66 20.83 3.62 21.05 3.59C21.25 3.57 21.44 3.5 21.61 3.4C21.79 3.3 21.94 3.17 22.07 3.01C22.19 2.85 22.31 2.7 22.42 2.54C22.81 1.99 23.35 1.7 24.01 1.6C24.3 1.56 24.58 1.61 24.86 1.67C25.1 1.73 25.35 1.77 25.59 1.81C25.92 1.86 26.23 1.77 26.51 1.61C26.71 1.5 26.9 1.38 27.09 1.25C27.69 0.84 28.34 0.78 29.03 0.96C29.19 1.01 29.35 1.08 29.49 1.18C29.68 1.3 29.86 1.42 30.04 1.53C30.29 1.67 30.55 1.78 30.83 1.84C30.98 1.88 31.13 1.89 31.28 1.92C31.64 2 32 1.95 32.35 1.89C32.58 1.85 32.81 1.79 33.05 1.8C33.74 1.85 34.32 2.11 34.76 2.67C34.88 2.83 34.99 3.01 35.11 3.18C35.29 3.44 35.51 3.66 35.77 3.85C35.9 3.95 36.05 4.03 36.18 4.12C36.45 4.31 36.76 4.4 37.07 4.48C37.18 4.5 37.29 4.53 37.4 4.55C38.04 4.68 38.49 5.07 38.84 5.6C39 5.84 39.06 6.12 39.12 6.4C39.16 6.64 39.22 6.87 39.29 7.1C39.35 7.27 39.42 7.43 39.51 7.58C39.54 7.64 39.57 7.71 39.6 7.77C39.61 7.79 39.62 7.81 39.63 7.83C39.7 7.91 39.77 7.99 39.83 8.08C40 8.31 40.21 8.52 40.45 8.69C40.56 8.77 40.66 8.85 40.77 8.92C41.23 9.24 41.48 9.68 41.63 10.2C41.73 10.58 41.7 10.95 41.61 11.32C41.57 11.53 41.53 11.74 41.5 11.95C41.47 12.15 41.48 12.36 41.52 12.56C41.52 12.57 41.53 12.59 41.53 12.6C41.5 12.77 41.59 12.92 41.61 13.09C41.66 13.38 41.79 13.65 41.94 13.91C42.03 14.05 42.11 14.2 42.2 14.34C42.44 14.75 42.5 15.19 42.46 15.65L42.46 15.65Z" fill="#FFFFFF" fill-opacity="1.000000" fill-rule="nonzero"/>
	<path id="Vector" d="M36.47 14.98C36.47 10.5 32.84 6.89 28.41 6.87C23.9 6.85 20.27 10.53 20.27 14.97C20.26 19.4 23.87 23.08 28.37 23.09C32.83 23.09 36.47 19.45 36.47 14.98ZM28.35 22.43C24.22 22.42 20.92 19.05 20.92 14.97C20.92 13 21.71 11.11 23.11 9.71C24.5 8.31 26.4 7.53 28.37 7.53C32.54 7.53 35.83 10.94 35.82 14.99C35.81 19.03 32.53 22.44 28.35 22.43Z" fill="#FFFFFF" fill-opacity="1.000000" fill-rule="nonzero"/>
	<path id="Vector" d="M36.91 9.98L36.5 10.12C36.52 10.17 36.53 10.2 36.54 10.23C36.6 10.42 36.67 10.6 36.73 10.79C36.73 10.82 36.75 10.85 36.78 10.87C36.8 10.89 36.83 10.9 36.86 10.91C37.45 11.06 38.03 11.21 38.62 11.36C38.66 11.37 38.7 11.39 38.74 11.4C38.74 11.41 38.74 11.41 38.74 11.42C38.54 11.49 38.35 11.56 38.16 11.63C37.96 11.69 37.77 11.77 37.56 11.82L37.48 11.63L37.07 11.78L37.41 12.75L37.82 12.6L37.74 12.34C38.25 12.16 38.76 11.98 39.28 11.8C39.31 11.9 39.34 11.98 39.38 12.06L39.79 11.92C39.78 11.88 39.77 11.85 39.76 11.81C39.7 11.63 39.63 11.45 39.57 11.26C39.56 11.22 39.54 11.19 39.51 11.16C39.48 11.14 39.45 11.12 39.41 11.12C38.82 10.97 38.22 10.82 37.63 10.67C37.59 10.66 37.56 10.65 37.53 10.64L37.53 10.61L38.72 10.2C38.75 10.27 38.77 10.32 38.8 10.39L39.21 10.25L38.88 9.29L38.47 9.44C38.5 9.53 38.52 9.6 38.54 9.69L37 10.22L36.91 9.98Z" fill="#FFFFFF" fill-opacity="1.000000" fill-rule="nonzero"/>
	<path id="Vector" d="M35.02 7.46L34.68 7.73C34.71 7.76 34.72 7.78 34.74 7.81C34.87 7.97 34.99 8.13 35.11 8.29C35.13 8.32 35.16 8.34 35.19 8.35C35.22 8.37 35.25 8.37 35.28 8.36C35.46 8.34 35.65 8.33 35.83 8.32C36.19 8.29 36.55 8.26 36.9 8.23C37.01 8.23 37.11 8.22 37.21 8.22L37.22 8.24L36.24 9.01C36.19 8.95 36.15 8.9 36.1 8.84L35.76 9.11L36.39 9.92L36.73 9.65L36.57 9.43C37 9.09 37.42 8.76 37.86 8.43L38.03 8.64L38.37 8.37C38.35 8.34 38.34 8.31 38.32 8.29C38.19 8.12 38.06 7.96 37.94 7.8C37.92 7.77 37.9 7.75 37.87 7.74C37.85 7.73 37.82 7.73 37.79 7.73C37.22 7.78 36.65 7.83 36.09 7.88C36 7.88 35.91 7.89 35.82 7.89C35.82 7.88 35.81 7.88 35.81 7.87C36.14 7.61 36.47 7.35 36.81 7.09L36.95 7.24L37.29 6.97C37.08 6.71 36.88 6.45 36.67 6.18L36.32 6.45C36.38 6.53 36.43 6.59 36.48 6.66L35.19 7.66L35.02 7.46Z" fill="#FFFFFF" fill-opacity="1.000000" fill-rule="nonzero"/>
	<path id="Vector" d="M17.46 11.83C17.99 12 18.5 12.17 19.01 12.35L18.93 12.6L19.35 12.74C19.46 12.4 19.58 12.07 19.69 11.73C19.55 11.68 19.42 11.64 19.28 11.59C19.25 11.68 19.21 11.76 19.18 11.84L17.64 11.31C17.75 10.97 17.86 10.64 17.98 10.31L19.53 10.84C19.5 10.92 19.48 11 19.45 11.09L19.86 11.23C19.98 10.88 20.09 10.55 20.21 10.22L19.79 10.07L19.7 10.33L18.15 9.8C18.18 9.71 18.2 9.63 18.23 9.54L17.82 9.4C17.53 10.25 17.25 11.08 16.96 11.93L17.37 12.07C17.4 11.98 17.43 11.91 17.46 11.83Z" fill="#FFFFFF" fill-opacity="1.000000" fill-rule="nonzero"/>
	<path id="Vector" d="M28.77 5.34C28.96 5.35 29.16 5.37 29.35 5.37C29.52 5.37 29.69 5.31 29.82 5.2C29.96 5.09 30.05 4.94 30.08 4.77C30.13 4.55 30.09 4.34 29.91 4.19C29.89 4.17 29.89 4.16 29.88 4.15C29.94 4.09 29.99 4.03 30.04 3.97C30.16 3.81 30.16 3.62 30.12 3.43C30.04 3.1 29.77 2.88 29.41 2.85C29.05 2.82 28.69 2.8 28.33 2.77C28.29 2.77 28.24 2.77 28.2 2.77C28.17 2.92 28.17 3.06 28.17 3.2L28.42 3.24C28.38 3.78 28.35 4.32 28.31 4.86L28.05 4.86C28.04 5 28.03 5.14 28.02 5.28C28.06 5.29 28.09 5.29 28.11 5.29C28.33 5.31 28.55 5.33 28.77 5.34ZM28.96 3.27C29.11 3.28 29.24 3.28 29.37 3.29C29.53 3.32 29.63 3.52 29.56 3.69C29.55 3.75 29.51 3.8 29.46 3.83C29.41 3.86 29.35 3.88 29.3 3.87C29.19 3.87 29.08 3.86 28.97 3.85C28.95 3.85 28.94 3.84 28.92 3.84C28.93 3.65 28.95 3.46 28.96 3.27ZM28.89 4.29C29.05 4.3 29.19 4.31 29.33 4.32C29.35 4.32 29.37 4.33 29.39 4.34C29.51 4.4 29.56 4.54 29.53 4.7C29.52 4.76 29.49 4.82 29.44 4.86C29.39 4.9 29.33 4.93 29.26 4.93C29.14 4.92 29.02 4.91 28.89 4.9C28.88 4.9 28.86 4.89 28.85 4.88C28.86 4.69 28.88 4.5 28.89 4.29Z" fill="#FFFFFF" fill-opacity="1.000000" fill-rule="nonzero"/>
	<path id="Vector" d="M32.78 5.88C32.69 6 32.61 6.12 32.53 6.25L33.41 6.85L33.65 6.49L33.44 6.33L33.93 5.61C33.95 5.67 33.96 5.69 33.96 5.72C34.02 6.03 34.07 6.34 34.14 6.65C34.15 6.69 34.15 6.72 34.14 6.76C34.13 6.8 34.11 6.84 34.09 6.87C34.02 6.96 33.95 7.06 33.88 7.17L34.56 7.64C34.65 7.5 34.74 7.37 34.82 7.25C34.8 7.22 34.78 7.2 34.75 7.19C34.72 7.17 34.69 7.15 34.67 7.12C34.65 7.09 34.64 7.05 34.64 7.02C34.59 6.71 34.53 6.4 34.48 6.09C34.47 6.05 34.47 6.02 34.47 5.98C34.53 5.97 34.57 5.96 34.62 5.96C34.87 5.93 35.12 5.91 35.36 5.88C35.49 5.86 35.62 5.84 35.73 5.96L36 5.57L35.3 5.09C35.22 5.2 35.15 5.31 35.08 5.42C35.06 5.44 35.04 5.46 35.02 5.47C35 5.49 34.97 5.49 34.94 5.5C34.64 5.53 34.34 5.57 34.04 5.6C34.01 5.6 33.97 5.6 33.94 5.6L34.36 4.98L34.59 5.13L34.84 4.77L33.96 4.16L33.71 4.52L33.91 4.67C33.8 4.89 33.05 5.96 32.98 6.01L32.78 5.88Z" fill="#FFFFFF" fill-opacity="1.000000" fill-rule="nonzero"/>
	<path id="Vector" d="M18.84 8.65L20.15 9.55L20 9.77L20.36 10.02L21.5 8.38L20.77 7.87L20.47 8.3C20.59 8.39 20.71 8.47 20.84 8.56C20.71 8.75 20.58 8.93 20.45 9.11L19.96 8.77L20.24 8.35L19.86 8.09C19.76 8.22 19.67 8.36 19.57 8.5L19.15 8.2C19.28 8.01 19.4 7.83 19.53 7.65C19.64 7.73 19.73 7.79 19.83 7.85L20.12 7.42L19.43 6.94L18.29 8.58L18.68 8.86L18.84 8.65Z" fill="#FFFFFF" fill-opacity="1.000000" fill-rule="nonzero"/>
	<path id="Vector" d="M26.35 5.56C26.78 5.56 27.11 5.41 27.33 5.15C27.82 4.57 27.72 3.67 27.13 3.2C26.9 3.02 26.6 2.92 26.31 2.94C26.01 2.97 25.74 3.1 25.53 3.32C25.16 3.71 25.08 4.36 25.35 4.87C25.58 5.29 25.94 5.53 26.35 5.56ZM25.85 3.77C25.89 3.69 25.95 3.62 26.02 3.57C26.09 3.52 26.18 3.48 26.26 3.46C26.35 3.45 26.44 3.45 26.53 3.47C26.61 3.49 26.69 3.53 26.76 3.59C26.92 3.72 27.03 3.91 27.07 4.11C27.11 4.31 27.09 4.52 27 4.71C26.95 4.79 26.89 4.87 26.82 4.92C26.74 4.98 26.65 5.02 26.56 5.04C26.46 5.05 26.36 5.05 26.27 5.02C26.18 4.99 26.1 4.94 26.03 4.87C25.94 4.79 25.86 4.68 25.81 4.56C25.77 4.45 25.74 4.32 25.74 4.19C25.74 4.04 25.78 3.9 25.85 3.77Z" fill="#FFFFFF" fill-opacity="1.000000" fill-rule="nonzero"/>
	<path id="Vector" d="M30.96 5.68C31.17 5.84 31.43 5.92 31.69 5.91C31.95 5.9 32.21 5.8 32.4 5.63C32.45 5.59 32.49 5.53 32.54 5.48L32.1 5.18C32.06 5.21 32.04 5.23 32.01 5.25C31.65 5.53 31.17 5.38 31.04 4.94C31 4.79 30.99 4.64 31.03 4.5C31.09 4.22 31.23 4 31.5 3.88C31.79 3.74 32.16 3.85 32.27 4.12C32.29 4.19 32.33 4.24 32.38 4.28C32.43 4.33 32.5 4.35 32.56 4.36C32.59 4.37 32.61 4.38 32.64 4.39C32.7 4.41 32.76 4.43 32.82 4.44C32.88 4.27 32.93 4.1 32.99 3.93C32.9 3.9 32.83 3.87 32.75 3.85C32.71 3.84 32.68 3.83 32.66 3.81C32.63 3.78 32.6 3.76 32.59 3.73C32.52 3.61 32.42 3.52 32.31 3.45C32.15 3.37 31.98 3.32 31.81 3.31C31.64 3.3 31.46 3.32 31.3 3.39C30.78 3.59 30.44 4.13 30.46 4.72C30.48 5.11 30.63 5.44 30.96 5.68Z" fill="#FFFFFF" fill-opacity="1.000000" fill-rule="nonzero"/>
	<path id="Vector" d="M22.02 7.78C22.55 7.67 22.99 7.14 22.92 6.54C22.91 6.44 22.88 6.34 22.83 6.26L22.36 6.48C22.36 6.52 22.37 6.55 22.37 6.58C22.39 6.67 22.39 6.77 22.36 6.86C22.33 6.95 22.28 7.04 22.21 7.11C22.15 7.18 22.06 7.23 21.97 7.26C21.88 7.29 21.78 7.29 21.69 7.28C21.27 7.22 20.92 6.81 20.93 6.4C20.93 6.03 21.24 5.72 21.61 5.79C21.65 5.8 21.69 5.8 21.73 5.79C21.76 5.78 21.79 5.76 21.82 5.73C21.89 5.67 21.96 5.61 22.03 5.55C22.06 5.53 22.07 5.5 22.1 5.48L21.75 5.07C21.67 5.14 21.6 5.2 21.53 5.26C21.5 5.29 21.45 5.31 21.4 5.31C21.27 5.31 21.14 5.34 21.02 5.39C20.81 5.5 20.64 5.67 20.54 5.89C20.3 6.36 20.36 6.82 20.67 7.24C21 7.69 21.46 7.9 22.02 7.78Z" fill="#FFFFFF" fill-opacity="1.000000" fill-rule="nonzero"/>
	<path id="Vector" d="M23.07 4.91L22.93 4.61L23.22 4.47C23.46 4.97 23.7 5.46 23.94 5.96L23.71 6.08C23.78 6.22 23.83 6.35 23.91 6.47C24.08 6.39 24.24 6.31 24.39 6.23C24.55 6.16 24.71 6.09 24.86 6L24.67 5.61L24.43 5.72L23.7 4.23L24.03 4.08L24.18 4.37L24.66 4.14L24.33 3.46L22.26 4.46L22.6 5.14L23.07 4.91Z" fill="#FFFFFF" fill-opacity="1.000000" fill-rule="nonzero"/>
	<path id="Vector" d="M29.88 25.51L30.13 25.49L30.13 25.11C30.08 25.11 30.05 25.11 30.02 25.11C29.86 25.12 29.7 25.13 29.53 25.13C29.5 25.13 29.47 25.13 29.44 25.15C29.41 25.16 29.39 25.19 29.37 25.22C29.22 25.44 29.07 25.65 28.91 25.87C28.89 25.89 28.87 25.92 28.84 25.95C28.82 25.92 28.8 25.91 28.79 25.89C28.61 25.68 28.43 25.47 28.25 25.25C28.24 25.23 28.22 25.22 28.19 25.21C28.17 25.2 28.15 25.19 28.12 25.19C28 25.2 27.88 25.2 27.76 25.21C27.68 25.21 27.6 25.22 27.52 25.23C27.52 25.3 27.52 25.37 27.52 25.43C27.52 25.49 27.53 25.55 27.54 25.61L27.78 25.61C27.79 25.86 27.8 26.09 27.81 26.34L27.56 26.36C27.57 26.49 27.57 26.61 27.58 26.75L28.44 26.71L28.44 26.33L28.26 26.31C28.25 26.16 28.25 26.02 28.24 25.87L28.27 25.86L28.87 26.55C28.97 26.42 29.06 26.3 29.15 26.17C29.24 26.05 29.32 25.93 29.42 25.81L29.44 25.82C29.45 25.97 29.45 26.12 29.46 26.27L29.3 26.29C29.3 26.41 29.31 26.54 29.32 26.67L30.18 26.63L30.18 26.24L29.91 26.24C29.9 25.99 29.89 25.76 29.88 25.51Z" fill="#FFFFFF" fill-opacity="1.000000" fill-rule="nonzero"/>
	<path id="Vector" d="M30.89 24.91C30.87 24.93 30.85 24.94 30.82 24.97C30.8 24.91 30.8 24.86 30.81 24.8C30.83 24.75 30.85 24.7 30.89 24.66C30.98 24.57 31.09 24.51 31.21 24.47C31.34 24.43 31.47 24.39 31.6 24.35C31.65 24.33 31.7 24.31 31.75 24.29C31.71 24.14 31.67 24.01 31.63 23.85C31.5 23.89 31.39 23.91 31.29 23.95C31.28 23.95 31.27 23.95 31.27 23.96C31.26 23.96 31.26 23.97 31.25 23.97C31.26 24.06 31.19 24.05 31.15 24.07C31 24.12 30.86 24.19 30.73 24.28C30.48 24.48 30.36 24.74 30.42 25.06C30.47 25.32 30.54 25.57 30.62 25.82C30.66 25.92 30.71 26 30.78 26.08C31.09 26.45 31.64 26.36 31.92 26.1C32.19 25.86 32.25 25.49 32.09 25.14C32.04 25.03 31.97 24.93 31.87 24.85C31.78 24.78 31.66 24.73 31.55 24.71C31.43 24.68 31.31 24.69 31.19 24.73C31.08 24.76 30.97 24.83 30.89 24.91ZM31.39 25.92C31.17 25.93 30.98 25.73 30.97 25.5C30.98 25.4 31.02 25.3 31.09 25.22C31.16 25.15 31.26 25.11 31.37 25.1C31.58 25.1 31.74 25.29 31.74 25.54C31.75 25.59 31.74 25.64 31.72 25.68C31.7 25.73 31.68 25.77 31.65 25.81C31.61 25.84 31.57 25.87 31.53 25.89C31.48 25.91 31.44 25.92 31.39 25.92L31.39 25.92Z" fill="#FFFFFF" fill-opacity="1.000000" fill-rule="nonzero"/>
	<path id="Vector" d="M36.25 23.14L35.77 22.58L35.93 22.43L35.69 22.14L35.02 22.71L35.26 23L35.43 22.87L35.56 23.02L35.04 23.45C35 23.4 34.96 23.35 34.92 23.29L35.07 23.16C34.99 23.06 34.91 22.96 34.83 22.87L34.15 23.43C34.24 23.53 34.32 23.63 34.4 23.72L34.58 23.59L35.05 24.15L34.89 24.3C34.97 24.41 35.05 24.5 35.14 24.6L35.81 24.03C35.72 23.93 35.64 23.83 35.56 23.74C35.5 23.78 35.45 23.82 35.39 23.87L35.24 23.68L35.75 23.24L35.91 23.43L35.75 23.58L36 23.87L36.67 23.31L36.42 23.01L36.25 23.14Z" fill="#FFFFFF" fill-opacity="1.000000" fill-rule="nonzero"/>
	<path id="Vector" d="M34.27 24.67C34.16 24.45 34.05 24.24 33.94 24.03L34.09 23.93L33.92 23.59C33.77 23.67 33.63 23.74 33.49 23.81C33.46 23.82 33.43 23.84 33.41 23.87C33.39 23.9 33.38 23.93 33.37 23.96C33.31 24.29 33.25 24.62 33.19 24.95C33.18 24.98 33.17 25.02 33.16 25.05L32.9 24.56L33.06 24.46C33 24.35 32.94 24.24 32.88 24.12C32.64 24.25 32.4 24.37 32.16 24.5L32.33 24.84L32.51 24.76L32.85 25.41L32.69 25.51C32.75 25.63 32.8 25.74 32.87 25.85C33.01 25.77 33.15 25.7 33.28 25.64C33.32 25.62 33.35 25.6 33.37 25.57C33.4 25.54 33.41 25.5 33.41 25.46C33.47 25.14 33.54 24.82 33.6 24.5C33.61 24.47 33.62 24.44 33.64 24.41C33.72 24.58 33.81 24.72 33.88 24.88L33.72 24.98L33.89 25.32L34.62 24.94C34.55 24.82 34.5 24.71 34.44 24.61L34.27 24.67Z" fill="#FFFFFF" fill-opacity="1.000000" fill-rule="nonzero"/>
	<path id="Vector" d="M19.36 20.58L19.7 20.41C19.43 19.89 19.17 19.38 18.91 18.86C18.79 18.92 18.68 18.97 18.57 19.04C18.6 19.11 18.63 19.17 18.66 19.24C18.54 19.29 18.43 19.35 18.31 19.4C18.12 19.47 17.96 19.42 17.84 19.25C17.82 19.22 17.8 19.18 17.77 19.14L17.43 19.31C17.47 19.4 17.51 19.47 17.54 19.54C17.61 19.66 17.71 19.76 17.83 19.82C17.96 19.88 18.1 19.89 18.23 19.86C18.41 19.83 18.59 19.77 18.75 19.68C18.79 19.66 18.82 19.65 18.87 19.63C18.93 19.76 19 19.87 19.05 20L18.39 20.34L18.29 20.14C18.09 20.22 18 20.27 17.95 20.34L18.36 21.15C18.48 21.1 18.6 21.04 18.71 20.98L18.59 20.73C18.82 20.62 19.03 20.51 19.25 20.4L19.36 20.58Z" fill="#FFFFFF" fill-opacity="1.000000" fill-rule="nonzero"/>
	<path id="Vector" d="M24.71 24.85C24.66 24.96 24.55 25 24.45 25.06C24.44 25.06 24.42 25.06 24.41 25.05C24.37 25.04 24.32 25.02 24.27 25C24.35 24.8 24.42 24.61 24.5 24.41L23.86 24.16C23.82 24.29 23.77 24.41 23.73 24.52C23.77 24.54 23.8 24.56 23.83 24.57C23.87 24.59 23.9 24.6 23.94 24.62C23.85 24.85 23.77 25.07 23.68 25.31L23.45 25.23L23.31 25.59L24.09 25.89L24.23 25.53L24.09 25.46C24.12 25.4 24.14 25.35 24.16 25.29C24.21 25.29 24.25 25.31 24.29 25.34C24.32 25.37 24.35 25.41 24.36 25.46C24.41 25.64 24.48 25.82 24.54 26C24.55 26.03 24.58 26.07 24.61 26.09C24.72 26.14 24.83 26.18 24.95 26.22L25.09 25.86C25.03 25.84 24.99 25.83 24.95 25.81C24.92 25.8 24.9 25.78 24.88 25.75C24.82 25.61 24.76 25.47 24.7 25.33C24.84 25.25 24.97 25.17 25.1 25.1C25.13 25.09 25.17 25.09 25.2 25.1C25.25 25.12 25.31 25.14 25.37 25.16C25.41 25.04 25.46 24.93 25.5 24.8L24.83 24.54C24.79 24.65 24.75 24.75 24.71 24.85Z" fill="#FFFFFF" fill-opacity="1.000000" fill-rule="nonzero"/>
	<path id="Vector" d="M39.78 15.86C39.68 15.85 39.58 15.85 39.48 15.85C39.31 15.85 39.28 15.83 39.23 15.67C39.21 15.59 39.18 15.52 39.16 15.45C39.15 15.43 39.15 15.41 39.14 15.39C39.13 15.36 39.11 15.34 39.09 15.32C39.06 15.3 39.04 15.29 39.01 15.29C38.98 15.29 38.95 15.3 38.92 15.32C38.9 15.34 38.88 15.36 38.87 15.39C38.84 15.5 38.8 15.6 38.77 15.7C38.73 15.83 38.69 15.85 38.57 15.85C38.46 15.85 38.35 15.85 38.24 15.85C38.21 15.85 38.17 15.86 38.14 15.88C38.12 15.9 38.09 15.92 38.08 15.96C38.06 16.02 38.08 16.07 38.15 16.13C38.24 16.19 38.33 16.26 38.41 16.33C38.52 16.41 38.53 16.45 38.5 16.58C38.46 16.69 38.43 16.79 38.39 16.9C38.38 16.93 38.38 16.97 38.39 17C38.4 17.03 38.42 17.06 38.45 17.08C38.47 17.09 38.51 17.1 38.54 17.1C38.57 17.1 38.6 17.08 38.62 17.06C38.69 17.01 38.75 16.97 38.82 16.92C39 16.79 39.02 16.79 39.19 16.91C39.26 16.96 39.32 17.01 39.39 17.06C39.46 17.1 39.52 17.11 39.57 17.07C39.63 17.03 39.64 16.97 39.62 16.89C39.61 16.87 39.6 16.85 39.6 16.83C39.57 16.75 39.54 16.66 39.52 16.57C39.48 16.46 39.5 16.41 39.59 16.33C39.68 16.26 39.77 16.19 39.86 16.12C39.88 16.11 39.9 16.1 39.91 16.08C39.93 16.06 39.93 16.04 39.94 16.01C39.94 15.99 39.94 15.97 39.93 15.95C39.92 15.93 39.91 15.91 39.9 15.9C39.88 15.88 39.86 15.87 39.84 15.86C39.83 15.86 39.8 15.85 39.78 15.86Z" fill="#FFFFFF" fill-opacity="1.000000" fill-rule="nonzero"/>
	<path id="Vector" d="M17.85 16.87C17.93 16.92 18.01 16.99 18.1 17.04C18.19 17.1 18.24 17.11 18.3 17.06C18.37 17.01 18.36 16.94 18.34 16.86C18.3 16.77 18.28 16.68 18.25 16.58C18.21 16.45 18.22 16.41 18.33 16.32C18.42 16.25 18.51 16.19 18.6 16.12C18.68 16.05 18.69 15.96 18.62 15.9C18.58 15.87 18.54 15.86 18.49 15.86C18.38 15.85 18.28 15.85 18.17 15.85C18.04 15.85 18.01 15.83 17.97 15.7C17.94 15.6 17.9 15.5 17.87 15.39C17.86 15.37 17.84 15.34 17.82 15.32C17.79 15.3 17.77 15.29 17.74 15.29C17.71 15.29 17.68 15.3 17.65 15.32C17.63 15.34 17.61 15.36 17.6 15.39C17.59 15.41 17.58 15.44 17.58 15.47C17.55 15.55 17.52 15.64 17.49 15.73C17.48 15.77 17.46 15.8 17.43 15.82C17.4 15.85 17.36 15.86 17.32 15.85C17.26 15.85 17.21 15.85 17.15 15.85L17.15 15.85L16.97 15.85C16.94 15.85 16.9 15.86 16.88 15.88C16.85 15.89 16.82 15.92 16.81 15.95C16.79 16.01 16.81 16.07 16.88 16.13C16.97 16.2 17.05 16.26 17.13 16.32C17.25 16.41 17.26 16.45 17.22 16.59C17.19 16.69 17.15 16.79 17.12 16.89C17.11 16.94 17.11 16.99 17.13 17.03C17.16 17.11 17.26 17.12 17.34 17.07C17.43 17.01 17.52 16.94 17.61 16.87C17.65 16.84 17.69 16.82 17.73 16.82C17.77 16.82 17.82 16.84 17.85 16.87Z" fill="#FFFFFF" fill-opacity="1.000000" fill-rule="nonzero"/>
	<path id="Vector" d="M38.46 20.14C38.23 20.02 38.01 19.91 37.79 19.78L37.92 19.55L38.18 19.68L38.38 19.3L37.79 18.98L36.92 20.61C37.12 20.72 37.31 20.82 37.51 20.92L37.71 20.54L37.46 20.4L37.58 20.18C37.81 20.3 38.03 20.41 38.24 20.53C38.21 20.61 38.17 20.68 38.14 20.75L38.48 20.93L38.93 20.09L38.59 19.91C38.54 19.99 38.5 20.06 38.46 20.14Z" fill="#FFFFFF" fill-opacity="1.000000" fill-rule="nonzero"/>
	<path id="Vector" d="M37.59 21.59C37.53 21.54 37.48 21.5 37.43 21.46C37.3 21.37 37.19 21.27 37.06 21.18C36.84 21.03 36.63 21.05 36.43 21.21C36.28 21.33 36.17 21.48 36.11 21.65C36.05 21.77 36.03 21.9 36.03 22.02L36.31 22.09C36.33 22.04 36.34 22.01 36.35 21.97C36.4 21.82 36.49 21.68 36.61 21.58C36.72 21.49 36.81 21.5 36.92 21.61C36.86 21.67 36.81 21.72 36.76 21.78C36.65 21.88 36.57 22.02 36.53 22.16C36.51 22.24 36.51 22.33 36.53 22.41C36.56 22.49 36.6 22.56 36.67 22.62C36.73 22.68 36.81 22.72 36.9 22.73C36.98 22.75 37.07 22.74 37.15 22.7C37.23 22.66 37.31 22.61 37.38 22.54C37.49 22.44 37.55 22.3 37.56 22.14C37.6 22.15 37.63 22.14 37.66 22.12C37.78 21.98 37.9 21.83 38.02 21.67L37.72 21.43L37.59 21.59ZM37.26 22.14C37.23 22.19 37.19 22.24 37.15 22.29C37.12 22.32 37.09 22.34 37.04 22.34C37 22.35 36.96 22.34 36.93 22.31C36.9 22.29 36.87 22.25 36.87 22.21C36.86 22.17 36.87 22.13 36.9 22.09C36.92 22.06 36.94 22.02 36.97 21.99C37.02 21.92 37.07 21.86 37.12 21.8C37.13 21.79 37.14 21.79 37.15 21.78C37.33 21.9 37.35 21.95 37.26 22.14L37.26 22.14Z" fill="#FFFFFF" fill-opacity="1.000000" fill-rule="nonzero"/>
	<path id="Vector" d="M19.48 21.54L20.18 22.43C20.3 22.34 20.41 22.23 20.49 22.11C20.56 22.01 20.59 21.89 20.6 21.77C20.61 21.45 20.45 21.21 20.19 21.06C19.67 20.75 19.1 21.14 18.99 21.6C18.97 21.68 18.96 21.77 18.97 21.85C19.01 22.22 19.33 22.56 19.7 22.66L19.83 22.37C19.79 22.34 19.75 22.32 19.72 22.3C19.64 22.23 19.56 22.17 19.49 22.1C19.42 22.02 19.37 21.93 19.36 21.82C19.35 21.77 19.36 21.72 19.38 21.67C19.4 21.62 19.43 21.57 19.48 21.54ZM20.14 21.47C20.25 21.61 20.25 21.74 20.12 21.88L19.72 21.38C19.87 21.29 20.02 21.32 20.14 21.47Z" fill="#FFFFFF" fill-opacity="1.000000" fill-rule="nonzero"/>
	<path id="Vector" d="M26.31 24.93C26.21 24.93 26.1 24.95 26 24.99C25.9 25.03 25.82 25.09 25.74 25.17C25.67 25.25 25.61 25.34 25.57 25.44C25.53 25.53 25.51 25.64 25.51 25.75C25.51 26.17 25.82 26.54 26.34 26.54C26.88 26.55 27.14 26.11 27.14 25.74C27.14 25.28 26.78 24.93 26.31 24.93ZM26.32 26.14C26.27 26.14 26.22 26.13 26.17 26.12C26.13 26.1 26.08 26.07 26.05 26.03C26.01 26 25.98 25.95 25.97 25.9C25.95 25.86 25.94 25.81 25.94 25.76C25.94 25.51 26.1 25.33 26.33 25.33C26.38 25.33 26.43 25.34 26.48 25.35C26.52 25.37 26.57 25.4 26.6 25.44C26.64 25.47 26.67 25.52 26.68 25.56C26.7 25.61 26.71 25.66 26.71 25.71C26.7 26 26.5 26.16 26.32 26.14L26.32 26.14Z" fill="#FFFFFF" fill-opacity="1.000000" fill-rule="nonzero"/>
	<path id="Vector" d="M22.57 23.46C22.16 23.45 21.76 23.8 21.76 24.29C21.75 24.71 22.15 25.08 22.59 25.09C23.02 25.09 23.39 24.72 23.39 24.27C23.39 23.83 23.02 23.47 22.57 23.46ZM22.56 24.68C22.51 24.68 22.46 24.67 22.41 24.65C22.37 24.63 22.33 24.6 22.29 24.57C22.26 24.53 22.23 24.49 22.21 24.44C22.19 24.4 22.18 24.35 22.19 24.3C22.19 24.07 22.37 23.86 22.59 23.86C22.69 23.86 22.79 23.9 22.86 23.97C22.93 24.04 22.97 24.14 22.97 24.24C22.97 24.47 22.77 24.68 22.56 24.68Z" fill="#FFFFFF" fill-opacity="1.000000" fill-rule="nonzero"/>
	<path id="Vector" d="M22.09 23.17C22.06 23.13 22.02 23.1 21.99 23.07C21.92 23.01 21.87 22.94 21.84 22.86C21.79 22.73 21.71 22.62 21.6 22.54C21.35 22.33 21.08 22.28 20.78 22.4C20.64 22.46 20.51 22.56 20.42 22.69C20.33 22.81 20.28 22.97 20.28 23.12C20.25 23.62 20.73 24.05 21.22 23.97C21.32 23.97 21.4 23.93 21.47 23.87C21.44 23.81 21.4 23.76 21.37 23.71C21.33 23.65 21.3 23.6 21.27 23.55C21.19 23.56 21.12 23.57 21.05 23.57C21 23.57 20.95 23.55 20.9 23.53C20.85 23.51 20.81 23.47 20.78 23.43C20.75 23.39 20.72 23.35 20.71 23.3C20.69 23.25 20.69 23.2 20.69 23.15C20.72 22.92 20.94 22.74 21.15 22.77C21.24 22.78 21.33 22.83 21.39 22.89C21.46 22.96 21.5 23.04 21.51 23.14C21.51 23.17 21.52 23.21 21.55 23.24C21.63 23.32 21.72 23.4 21.81 23.48L22.09 23.17Z" fill="#FFFFFF" fill-opacity="1.000000" fill-rule="nonzero"/>
	<path id="Vector" d="M40.09 10.7C40.05 10.69 40 10.67 39.97 10.64C39.9 10.58 39.85 10.49 39.84 10.4C39.83 10.31 39.86 10.21 39.92 10.14C39.93 10.12 39.94 10.11 39.95 10.09L39.82 9.73C39.64 9.86 39.52 10.01 39.51 10.22C39.49 10.46 39.57 10.69 39.72 10.87C39.86 11.05 40.05 11.11 40.29 11.09C40.25 10.98 40.22 10.89 40.19 10.8C40.19 10.77 40.18 10.75 40.16 10.73C40.14 10.72 40.11 10.71 40.09 10.7Z" fill="#FFFFFF" fill-opacity="1.000000" fill-rule="nonzero"/>
	<path id="Vector" d="M30.22 15.43C30.08 15.35 29.93 15.28 29.78 15.22C29.71 15.18 29.63 15.16 29.55 15.13C29.55 15.05 29.56 14.97 29.56 14.9C29.57 14.74 29.49 14.66 29.33 14.65C29.23 14.65 29.14 14.63 29.04 14.61C28.61 14.51 28.25 14.27 27.92 13.98C27.86 13.93 27.86 13.89 27.9 13.82C27.99 13.66 28.08 13.5 28.18 13.36C28.54 12.86 28.96 12.41 29.42 12C29.72 11.74 30.03 11.49 30.38 11.32C30.41 11.3 30.44 11.28 30.46 11.26C30.62 11.11 30.78 10.95 30.93 10.79C30.96 10.76 30.99 10.73 31 10.69C31.02 10.65 31.03 10.61 31.03 10.56C31.03 10.52 31.03 10.48 31.01 10.44C31 10.4 30.97 10.36 30.94 10.33C30.77 10.15 30.59 9.97 30.41 9.79C30.34 9.74 30.26 9.7 30.18 9.7C30.09 9.71 30.01 9.74 29.95 9.8C29.92 9.83 29.89 9.86 29.87 9.88C28.92 10.83 27.97 11.78 27.02 12.73C27 12.75 26.98 12.78 26.95 12.79C26.92 12.81 26.88 12.82 26.85 12.82C26.75 12.83 26.66 12.88 26.59 12.95C26.31 13.23 26.03 13.51 25.75 13.79C25.71 13.83 25.68 13.87 25.65 13.93C25.63 13.98 25.62 14.04 25.62 14.1C25.62 14.15 25.63 14.21 25.65 14.27C25.68 14.32 25.71 14.37 25.75 14.41C25.93 14.59 26.11 14.77 26.3 14.95C26.34 15 26.39 15.04 26.45 15.06C26.51 15.08 26.57 15.09 26.64 15.08C26.75 15.06 26.8 15.11 26.85 15.2C26.8 15.22 26.77 15.24 26.73 15.26C26.54 15.33 26.37 15.43 26.22 15.55C26.13 15.62 26.06 15.72 26 15.83C25.95 15.94 25.93 16.05 25.93 16.17C25.93 17.43 25.93 18.69 25.93 19.95C25.93 19.99 25.94 20.03 25.94 20.07C25.95 20.11 25.97 20.14 26 20.17C26.02 20.19 26.06 20.21 26.09 20.22C26.13 20.23 26.16 20.22 26.2 20.21C26.23 20.2 26.26 20.18 26.29 20.15C26.33 20.11 26.35 20.05 26.34 19.99C26.34 19.8 26.34 19.61 26.34 19.42C26.34 19.38 26.35 19.35 26.35 19.31C26.38 19.32 26.4 19.33 26.42 19.34C26.69 19.48 26.98 19.58 27.27 19.63C27.3 19.64 27.33 19.64 27.37 19.64C27.41 19.65 27.46 19.63 27.5 19.6C27.53 19.57 27.56 19.53 27.57 19.48C27.58 19.44 27.57 19.39 27.55 19.35C27.52 19.31 27.49 19.27 27.44 19.26C27.4 19.24 27.35 19.24 27.31 19.22C27.11 19.16 26.91 19.1 26.72 19.03C26.62 18.99 26.54 18.93 26.46 18.87C26.42 18.84 26.39 18.8 26.37 18.75C26.34 18.7 26.34 18.65 26.34 18.6C26.34 18.41 26.34 18.23 26.34 18.04C26.34 18.01 26.35 17.98 26.35 17.95C26.48 18.01 26.59 18.07 26.7 18.12C27.21 18.33 27.74 18.4 28.29 18.4C28.31 18.4 28.32 18.4 28.34 18.4C28.38 18.39 28.41 18.38 28.44 18.35C28.47 18.33 28.49 18.3 28.5 18.26C28.51 18.23 28.51 18.19 28.5 18.16C28.5 18.12 28.48 18.09 28.45 18.07C28.43 18.04 28.41 18.03 28.38 18.01C28.35 18 28.32 18 28.29 18C28.09 17.99 27.9 17.98 27.7 17.96C27.41 17.93 27.12 17.86 26.84 17.74C26.71 17.69 26.58 17.61 26.47 17.52C26.44 17.49 26.41 17.46 26.39 17.43C26.37 17.39 26.35 17.35 26.35 17.31C26.34 17.14 26.34 16.96 26.34 16.77C26.45 16.83 26.53 16.87 26.62 16.91C26.71 16.95 26.8 16.99 26.89 17.02C26.98 17.05 27.07 17.08 27.16 17.1C27.25 17.13 27.35 17.14 27.44 17.16C27.54 17.18 27.64 17.19 27.73 17.2C27.83 17.21 27.93 17.22 28.03 17.23C28.12 17.23 28.21 17.23 28.31 17.23C28.4 17.23 28.5 17.23 28.6 17.23C28.7 17.22 28.79 17.21 28.89 17.2C28.99 17.19 29.08 17.18 29.18 17.16C29.28 17.14 29.37 17.12 29.47 17.1C29.56 17.08 29.65 17.05 29.74 17.02C29.83 16.99 29.92 16.95 30.01 16.91C30.09 16.87 30.18 16.82 30.26 16.78C30.27 16.79 30.27 16.8 30.27 16.82C30.27 17.18 30.27 17.54 30.27 17.9C30.27 17.93 30.27 17.97 30.25 18.01C30.24 18.05 30.21 18.08 30.19 18.11C30.13 18.16 30.06 18.22 30 18.26C29.84 18.36 29.68 18.43 29.5 18.47C29.43 18.5 29.35 18.51 29.28 18.54C29.24 18.54 29.2 18.56 29.18 18.59C29.15 18.62 29.13 18.66 29.13 18.7C29.12 18.73 29.13 18.77 29.14 18.8C29.15 18.83 29.17 18.86 29.19 18.88C29.22 18.91 29.25 18.92 29.29 18.93C29.32 18.94 29.35 18.94 29.39 18.92C29.66 18.87 29.93 18.77 30.17 18.63C30.2 18.61 30.23 18.6 30.28 18.58L30.28 19.93C30.27 19.97 30.28 20.01 30.28 20.05C30.29 20.1 30.31 20.14 30.35 20.18C30.38 20.21 30.43 20.22 30.48 20.22C30.53 20.22 30.57 20.21 30.61 20.17C30.64 20.14 30.67 20.1 30.67 20.05C30.68 20.01 30.68 19.96 30.68 19.92L30.68 17.24C30.68 16.87 30.67 16.5 30.68 16.14C30.68 16.05 30.66 15.96 30.63 15.87C30.6 15.79 30.55 15.71 30.48 15.65C30.41 15.57 30.32 15.49 30.22 15.43ZM29.13 15.05C29.13 15.08 29.13 15.11 29.13 15.14C29.07 15.45 28.92 15.73 28.69 15.94C28.67 15.96 28.64 15.98 28.61 15.99C28.58 16.01 28.55 16.01 28.52 16.01C28.28 16.01 28.04 16.01 27.78 16.01C27.63 15.57 27.39 15.17 27.07 14.82L27.63 14.27C28.06 14.64 28.54 14.95 29.13 15.05ZM30.21 10.16C30.3 10.26 30.41 10.36 30.51 10.47C30.53 10.49 30.56 10.52 30.59 10.55C30.57 10.57 30.55 10.6 30.53 10.62C30.35 10.82 30.14 10.99 29.92 11.12C29.61 11.3 29.34 11.53 29.08 11.77C28.64 12.16 28.24 12.6 27.89 13.07C27.82 13.17 27.75 13.28 27.68 13.37C27.56 13.25 27.44 13.14 27.33 13.03L30.21 10.16ZM26.59 14.68C26.4 14.49 26.21 14.3 26.03 14.12C26.33 13.82 26.62 13.53 26.91 13.24C27.12 13.41 27.3 13.6 27.48 13.8C27.43 13.88 26.7 14.61 26.59 14.68L26.59 14.68ZM30.23 16.24C30.17 16.31 30.1 16.38 30.03 16.43C29.83 16.56 29.61 16.65 29.38 16.7C28.57 16.89 27.77 16.88 26.98 16.62C26.81 16.57 26.66 16.49 26.52 16.39C26.28 16.2 26.28 16.03 26.52 15.84C26.69 15.71 26.88 15.62 27.08 15.56C27.1 15.56 27.11 15.56 27.12 15.56C27.21 15.7 27.29 15.84 27.34 15.99C27.3 16 27.27 16.01 27.24 16.02C27.2 16.03 27.16 16.06 27.14 16.1C27.11 16.14 27.1 16.18 27.1 16.23C27.11 16.27 27.13 16.32 27.16 16.35C27.19 16.38 27.24 16.4 27.28 16.41C27.32 16.41 27.35 16.41 27.39 16.41L29.23 16.41C29.26 16.41 29.3 16.41 29.33 16.41C29.38 16.4 29.43 16.38 29.46 16.34C29.49 16.31 29.51 16.26 29.51 16.21C29.51 16.16 29.49 16.11 29.46 16.08C29.42 16.04 29.38 16.02 29.33 16.01C29.29 16.01 29.25 16.01 29.2 16L29.45 15.54C29.7 15.61 29.95 15.7 30.15 15.88C30.18 15.91 30.21 15.94 30.23 15.98C30.26 16.02 30.27 16.06 30.27 16.11C30.27 16.16 30.26 16.2 30.23 16.24L30.23 16.24Z" fill="#FFFFFF" fill-opacity="1.000000" fill-rule="nonzero"/>
	<path id="Vector" d="M30.94 14.6C30.84 14.59 30.73 14.59 30.63 14.6C30.58 14.61 30.53 14.63 30.5 14.67C30.47 14.71 30.45 14.75 30.45 14.8C30.45 14.85 30.47 14.9 30.51 14.94C30.55 14.97 30.6 15 30.65 15C30.69 15 30.74 15 30.79 15C30.83 15 30.87 15 30.92 15C30.97 15 31.02 14.98 31.05 14.94C31.09 14.91 31.11 14.86 31.12 14.81C31.12 14.76 31.1 14.71 31.07 14.67C31.04 14.63 30.99 14.6 30.94 14.6Z" fill="#FFFFFF" fill-opacity="1.000000" fill-rule="nonzero"/>
	<path id="Vector" d="M29.43 13.1C29.38 13.09 29.33 13.11 29.29 13.14C29.25 13.17 29.22 13.22 29.22 13.27C29.21 13.37 29.21 13.48 29.22 13.58C29.22 13.6 29.22 13.63 29.24 13.65C29.25 13.68 29.27 13.7 29.29 13.71C29.31 13.73 29.33 13.74 29.35 13.75C29.38 13.76 29.41 13.76 29.43 13.76C29.48 13.75 29.53 13.73 29.57 13.69C29.6 13.65 29.62 13.61 29.62 13.55C29.62 13.51 29.62 13.47 29.62 13.43C29.62 13.38 29.62 13.34 29.62 13.3C29.62 13.25 29.6 13.2 29.56 13.16C29.53 13.12 29.48 13.1 29.43 13.1Z" fill="#FFFFFF" fill-opacity="1.000000" fill-rule="nonzero"/>
	<path id="Vector" d="M30.46 13.53C30.44 13.53 30.41 13.54 30.39 13.55C30.29 13.64 30.2 13.73 30.12 13.83C30.06 13.9 30.09 14.01 30.15 14.07C30.18 14.1 30.23 14.12 30.27 14.12C30.32 14.13 30.36 14.12 30.4 14.09C30.49 14.02 30.57 13.94 30.64 13.85C30.66 13.82 30.68 13.79 30.68 13.75C30.68 13.71 30.67 13.67 30.65 13.64C30.63 13.61 30.61 13.58 30.57 13.56C30.54 13.54 30.5 13.53 30.46 13.53Z" fill="#FFFFFF" fill-opacity="1.000000" fill-rule="nonzero"/>
	<path id="Vector" d="M35.56 14.86C35.55 14.86 35.53 14.86 35.52 14.87C35.51 14.88 35.49 14.88 35.48 14.9C35.47 14.91 35.47 14.92 35.46 14.93C35.46 14.95 35.46 14.96 35.46 14.98C35.46 14.99 35.46 15 35.47 15.02C35.47 15.03 35.48 15.04 35.49 15.05C35.5 15.06 35.51 15.07 35.53 15.07C35.54 15.08 35.55 15.08 35.57 15.08C35.58 15.08 35.59 15.07 35.6 15.07C35.62 15.06 35.63 15.05 35.64 15.04C35.65 15.03 35.65 15.02 35.66 15.01C35.66 14.99 35.66 14.98 35.66 14.97C35.66 14.95 35.66 14.94 35.66 14.93C35.65 14.91 35.64 14.9 35.63 14.89C35.62 14.88 35.61 14.87 35.6 14.87C35.59 14.86 35.57 14.86 35.56 14.86Z" fill="#FFFFFF" fill-opacity="1.000000" fill-rule="nonzero"/>
	<path id="Vector" d="M21.26 13.99C21.29 13.99 21.31 13.98 21.33 13.96C21.35 13.94 21.36 13.92 21.36 13.89C21.36 13.86 21.35 13.84 21.33 13.82C21.31 13.81 21.29 13.79 21.27 13.79C21.25 13.79 21.24 13.79 21.23 13.8C21.21 13.8 21.2 13.81 21.19 13.82C21.18 13.83 21.18 13.84 21.17 13.85C21.17 13.87 21.16 13.88 21.16 13.89C21.16 13.92 21.17 13.94 21.19 13.96C21.21 13.98 21.23 13.99 21.26 13.99Z" fill="#FFFFFF" fill-opacity="1.000000" fill-rule="nonzero"/>
	<path id="Vector" d="M23.6 20.25C23.57 20.25 23.54 20.27 23.52 20.28C23.5 20.3 23.49 20.33 23.49 20.36C23.49 20.38 23.5 20.4 23.52 20.42C23.54 20.44 23.56 20.45 23.59 20.45C23.61 20.45 23.64 20.44 23.66 20.42C23.68 20.4 23.69 20.38 23.69 20.35C23.69 20.33 23.68 20.3 23.66 20.28C23.64 20.27 23.62 20.26 23.6 20.25Z" fill="#FFFFFF" fill-opacity="1.000000" fill-rule="nonzero"/>
	<path id="Vector" d="M21.37 16.08C21.36 16.06 21.35 16.03 21.33 16.02C21.31 16 21.29 15.99 21.26 15.99C21.24 15.99 21.21 16 21.19 16.02C21.17 16.04 21.16 16.06 21.17 16.09C21.17 16.1 21.17 16.12 21.17 16.13C21.18 16.14 21.19 16.15 21.2 16.16C21.21 16.17 21.22 16.18 21.23 16.18C21.24 16.19 21.25 16.19 21.27 16.19C21.28 16.19 21.29 16.18 21.31 16.18C21.32 16.17 21.33 16.17 21.34 16.16C21.35 16.15 21.35 16.14 21.36 16.12C21.36 16.11 21.37 16.1 21.37 16.08Z" fill="#FFFFFF" fill-opacity="1.000000" fill-rule="nonzero"/>
	<path id="Vector" d="M33.55 19.87C33.52 19.87 33.5 19.88 33.48 19.9C33.46 19.92 33.45 19.94 33.45 19.97C33.45 20 33.46 20.02 33.48 20.04C33.5 20.05 33.53 20.06 33.55 20.06C33.58 20.06 33.6 20.05 33.62 20.04C33.64 20.02 33.65 20 33.65 19.97C33.65 19.94 33.64 19.92 33.62 19.9C33.6 19.88 33.58 19.87 33.55 19.87Z" fill="#FFFFFF" fill-opacity="1.000000" fill-rule="nonzero"/>
	<path id="Vector" d="M33.92 19.46C33.9 19.46 33.87 19.46 33.85 19.48C33.83 19.5 33.82 19.52 33.82 19.55C33.82 19.57 33.83 19.6 33.84 19.62C33.86 19.64 33.89 19.65 33.92 19.66C33.94 19.65 33.96 19.64 33.98 19.63C34 19.61 34.01 19.59 34.02 19.56C34.02 19.54 34.01 19.51 33.99 19.49C33.97 19.47 33.95 19.46 33.92 19.46Z" fill="#FFFFFF" fill-opacity="1.000000" fill-rule="nonzero"/>
	<path id="Vector" d="M24.45 9.05C24.48 9.05 24.5 9.04 24.52 9.02C24.54 9 24.55 8.98 24.55 8.95C24.55 8.92 24.54 8.9 24.52 8.88C24.5 8.86 24.48 8.85 24.45 8.85C24.42 8.85 24.4 8.86 24.38 8.88C24.36 8.9 24.35 8.92 24.35 8.94C24.35 8.96 24.35 8.97 24.36 8.98C24.36 9 24.37 9.01 24.38 9.02C24.39 9.03 24.4 9.03 24.41 9.04C24.43 9.05 24.44 9.05 24.45 9.05Z" fill="#FFFFFF" fill-opacity="1.000000" fill-rule="nonzero"/>
	<path id="Vector" d="M25.43 21.45C25.4 21.45 25.38 21.46 25.36 21.48C25.34 21.5 25.33 21.53 25.34 21.55C25.34 21.58 25.35 21.6 25.37 21.62C25.38 21.63 25.41 21.65 25.43 21.65C25.46 21.65 25.48 21.63 25.5 21.62C25.52 21.6 25.53 21.57 25.53 21.54C25.53 21.52 25.52 21.49 25.5 21.47C25.48 21.46 25.45 21.45 25.43 21.45Z" fill="#FFFFFF" fill-opacity="1.000000" fill-rule="nonzero"/>
	<path id="Vector" d="M31.8 21.2C31.78 21.2 31.75 21.21 31.74 21.23C31.72 21.25 31.71 21.27 31.71 21.3C31.71 21.32 31.72 21.35 31.73 21.36C31.75 21.38 31.77 21.39 31.8 21.4C31.83 21.4 31.85 21.39 31.87 21.37C31.89 21.35 31.91 21.33 31.91 21.3C31.91 21.27 31.9 21.25 31.88 21.23C31.86 21.21 31.83 21.2 31.8 21.2Z" fill="#FFFFFF" fill-opacity="1.000000" fill-rule="nonzero"/>
	<path id="Vector" d="M27.01 21.94C26.99 21.94 26.96 21.95 26.94 21.97C26.92 21.98 26.91 22.01 26.91 22.03C26.91 22.05 26.91 22.07 26.92 22.09C26.93 22.11 26.94 22.12 26.96 22.13C26.98 22.14 27 22.14 27.02 22.14C27.04 22.14 27.06 22.13 27.07 22.12C27.09 22.11 27.1 22.09 27.1 22.07C27.11 22.05 27.11 22.03 27.1 22.01C27.1 21.99 27.08 21.98 27.07 21.96C27.05 21.95 27.03 21.94 27.01 21.94Z" fill="#FFFFFF" fill-opacity="1.000000" fill-rule="nonzero"/>
	<path id="Vector" d="M25.93 8.31C25.95 8.31 25.98 8.3 25.99 8.28C26.01 8.27 26.02 8.24 26.03 8.22C26.03 8.19 26.02 8.16 26 8.15C25.98 8.13 25.95 8.11 25.92 8.11C25.91 8.11 25.9 8.12 25.89 8.12C25.87 8.13 25.86 8.14 25.85 8.15C25.84 8.16 25.84 8.17 25.83 8.18C25.83 8.19 25.83 8.21 25.83 8.22C25.83 8.25 25.84 8.27 25.86 8.29C25.88 8.3 25.9 8.31 25.93 8.31Z" fill="#FFFFFF" fill-opacity="1.000000" fill-rule="nonzero"/>
	<path id="Vector" d="M28.63 7.89C28.65 7.89 28.68 7.88 28.7 7.86C28.72 7.84 28.73 7.82 28.73 7.79C28.73 7.78 28.72 7.76 28.72 7.75C28.71 7.74 28.7 7.73 28.69 7.72C28.68 7.71 28.67 7.7 28.66 7.7C28.65 7.69 28.63 7.69 28.62 7.69C28.6 7.7 28.57 7.71 28.56 7.73C28.54 7.75 28.53 7.77 28.53 7.79C28.53 7.82 28.54 7.84 28.56 7.86C28.58 7.88 28.6 7.89 28.63 7.89Z" fill="#FFFFFF" fill-opacity="1.000000" fill-rule="nonzero"/>
	<path id="Vector" d="M21.93 18.08C21.91 18.08 21.88 18.09 21.86 18.11C21.84 18.13 21.83 18.15 21.83 18.18C21.83 18.2 21.84 18.23 21.86 18.25C21.87 18.26 21.9 18.28 21.92 18.28C21.95 18.28 21.97 18.27 21.99 18.25C22.01 18.24 22.03 18.21 22.03 18.18C22.03 18.16 22.02 18.13 22 18.11C21.98 18.09 21.96 18.08 21.93 18.08Z" fill="#FFFFFF" fill-opacity="1.000000" fill-rule="nonzero"/>
	<path id="Vector" d="M28.65 22.07C28.63 22.07 28.6 22.08 28.58 22.09C28.57 22.11 28.55 22.13 28.55 22.16C28.55 22.19 28.56 22.21 28.58 22.23C28.6 22.25 28.62 22.26 28.65 22.26C28.68 22.26 28.7 22.26 28.72 22.24C28.74 22.22 28.75 22.2 28.75 22.17C28.75 22.14 28.74 22.12 28.72 22.1C28.7 22.08 28.68 22.07 28.65 22.07Z" fill="#FFFFFF" fill-opacity="1.000000" fill-rule="nonzero"/>
	<path id="Vector" d="M29.73 8.01C29.75 8.01 29.78 8 29.79 7.98C29.81 7.96 29.82 7.94 29.82 7.92C29.82 7.89 29.81 7.86 29.79 7.84C29.77 7.82 29.75 7.81 29.72 7.81C29.69 7.82 29.67 7.83 29.65 7.85C29.63 7.86 29.62 7.89 29.62 7.91C29.62 7.93 29.63 7.94 29.63 7.95C29.64 7.96 29.64 7.98 29.65 7.99C29.66 8 29.68 8 29.69 8.01C29.7 8.01 29.71 8.01 29.73 8.01Z" fill="#FFFFFF" fill-opacity="1.000000" fill-rule="nonzero"/>
	<path id="Vector" d="M35.04 17.57C35.02 17.57 34.99 17.58 34.97 17.6C34.95 17.62 34.94 17.64 34.94 17.67C34.94 17.7 34.95 17.72 34.97 17.74C34.99 17.76 35.01 17.77 35.04 17.77C35.06 17.77 35.09 17.76 35.11 17.74C35.13 17.72 35.14 17.69 35.14 17.67C35.14 17.64 35.13 17.62 35.11 17.6C35.09 17.58 35.07 17.57 35.04 17.57Z" fill="#FFFFFF" fill-opacity="1.000000" fill-rule="nonzero"/>
	<path id="Vector" d="M35.44 14.41C35.44 14.43 35.45 14.46 35.47 14.48C35.48 14.49 35.51 14.51 35.53 14.51C35.56 14.51 35.59 14.5 35.61 14.48C35.63 14.46 35.64 14.43 35.64 14.41C35.64 14.38 35.63 14.36 35.61 14.34C35.59 14.32 35.57 14.31 35.54 14.31C35.52 14.31 35.49 14.32 35.47 14.34C35.45 14.36 35.44 14.38 35.44 14.41Z" fill="#FFFFFF" fill-opacity="1.000000" fill-rule="nonzero"/>
	<path id="Vector" d="M32.3 20.92C32.27 20.91 32.24 20.92 32.22 20.93C32.2 20.95 32.19 20.97 32.18 21C32.18 21.03 32.18 21.05 32.2 21.07C32.21 21.1 32.24 21.11 32.26 21.11C32.29 21.12 32.32 21.11 32.34 21.1C32.36 21.08 32.37 21.06 32.38 21.03C32.38 21.01 32.38 20.98 32.36 20.96C32.35 20.94 32.32 20.92 32.3 20.92Z" fill="#FFFFFF" fill-opacity="1.000000" fill-rule="nonzero"/>
	<path id="Vector" d="M35.54 15.43C35.51 15.43 35.49 15.44 35.47 15.46C35.45 15.48 35.44 15.5 35.44 15.52C35.44 15.54 35.44 15.56 35.45 15.58C35.46 15.6 35.48 15.61 35.5 15.62C35.52 15.63 35.54 15.63 35.56 15.63C35.58 15.62 35.59 15.62 35.61 15.6C35.62 15.59 35.63 15.57 35.64 15.55C35.64 15.53 35.64 15.51 35.63 15.49C35.62 15.47 35.61 15.46 35.6 15.45C35.58 15.44 35.56 15.43 35.54 15.43Z" fill="#FFFFFF" fill-opacity="1.000000" fill-rule="nonzero"/>
	<path id="Vector" d="M34.25 19.02C34.23 19.02 34.2 19.03 34.18 19.05C34.16 19.06 34.15 19.09 34.15 19.12C34.15 19.14 34.16 19.17 34.18 19.19C34.2 19.21 34.22 19.22 34.25 19.22C34.28 19.22 34.3 19.21 34.32 19.19C34.34 19.17 34.35 19.15 34.35 19.12C34.35 19.1 34.34 19.07 34.32 19.05C34.31 19.03 34.28 19.02 34.25 19.02Z" fill="#FFFFFF" fill-opacity="1.000000" fill-rule="nonzero"/>
	<path id="Vector" d="M24.94 21.2C24.91 21.2 24.89 21.21 24.87 21.23C24.85 21.25 24.84 21.27 24.84 21.3C24.84 21.32 24.85 21.35 24.87 21.37C24.89 21.39 24.91 21.4 24.94 21.4C24.95 21.4 24.96 21.4 24.98 21.39C24.99 21.39 25 21.38 25.01 21.37C25.02 21.36 25.03 21.35 25.03 21.34C25.04 21.33 25.04 21.31 25.04 21.3C25.04 21.27 25.03 21.25 25.01 21.23C24.99 21.21 24.97 21.2 24.94 21.2Z" fill="#FFFFFF" fill-opacity="1.000000" fill-rule="nonzero"/>
	<path id="Vector" d="M30.81 21.65C30.78 21.65 30.76 21.66 30.74 21.68C30.72 21.69 30.71 21.72 30.7 21.74C30.7 21.77 30.71 21.79 30.73 21.81C30.75 21.83 30.77 21.84 30.8 21.85C30.82 21.85 30.85 21.84 30.87 21.82C30.89 21.8 30.9 21.78 30.9 21.76C30.9 21.73 30.89 21.7 30.88 21.68C30.86 21.66 30.83 21.65 30.81 21.65Z" fill="#FFFFFF" fill-opacity="1.000000" fill-rule="nonzero"/>
	<path id="Vector" d="M29.75 21.94C29.73 21.94 29.72 21.94 29.71 21.95C29.69 21.95 29.68 21.96 29.67 21.97C29.66 21.98 29.66 21.99 29.65 22.01C29.65 22.02 29.65 22.03 29.65 22.04C29.65 22.07 29.66 22.09 29.68 22.11C29.69 22.13 29.72 22.14 29.74 22.14C29.77 22.14 29.79 22.13 29.81 22.11C29.83 22.09 29.84 22.06 29.84 22.04C29.84 22.01 29.83 21.99 29.81 21.97C29.79 21.95 29.77 21.94 29.75 21.94Z" fill="#FFFFFF" fill-opacity="1.000000" fill-rule="nonzero"/>
	<path id="Vector" d="M26.99 8.02C27.01 8.02 27.04 8.01 27.06 7.99C27.07 7.97 27.08 7.95 27.09 7.92C27.09 7.9 27.08 7.87 27.06 7.85C27.04 7.83 27.01 7.82 26.99 7.82C26.96 7.82 26.94 7.83 26.92 7.85C26.9 7.87 26.89 7.89 26.89 7.91C26.89 7.93 26.89 7.94 26.89 7.95C26.9 7.97 26.91 7.98 26.92 7.99C26.92 8 26.94 8 26.95 8.01C26.96 8.02 26.97 8.02 26.99 8.02Z" fill="#FFFFFF" fill-opacity="1.000000" fill-rule="nonzero"/>
	<path id="Vector" d="M31.29 8.51C31.32 8.51 31.35 8.5 31.37 8.48C31.39 8.46 31.4 8.43 31.4 8.4C31.4 8.39 31.39 8.38 31.39 8.36C31.38 8.35 31.37 8.34 31.36 8.33C31.36 8.32 31.34 8.32 31.33 8.31C31.32 8.31 31.31 8.3 31.29 8.31C31.28 8.31 31.27 8.31 31.25 8.31C31.24 8.32 31.23 8.33 31.22 8.34C31.21 8.35 31.21 8.36 31.2 8.37C31.2 8.39 31.2 8.4 31.2 8.41C31.2 8.44 31.21 8.46 31.23 8.48C31.25 8.5 31.27 8.51 31.29 8.51Z" fill="#FFFFFF" fill-opacity="1.000000" fill-rule="nonzero"/>
	<path id="Vector" d="M24.91 8.76C24.93 8.77 24.94 8.76 24.95 8.76C24.97 8.76 24.98 8.75 24.99 8.74C25 8.73 25.01 8.72 25.01 8.71C25.02 8.7 25.02 8.68 25.02 8.67C25.02 8.66 25.02 8.64 25.02 8.63C25.01 8.62 25.01 8.61 25 8.6C24.99 8.59 24.98 8.58 24.97 8.58C24.95 8.57 24.94 8.57 24.93 8.57C24.91 8.57 24.9 8.57 24.89 8.57C24.88 8.58 24.87 8.58 24.86 8.59C24.85 8.6 24.84 8.61 24.83 8.62C24.83 8.64 24.82 8.65 24.82 8.66C24.82 8.69 24.83 8.71 24.85 8.73C24.86 8.75 24.89 8.76 24.91 8.76Z" fill="#FFFFFF" fill-opacity="1.000000" fill-rule="nonzero"/>
	<path id="Vector" d="M24 9.37C24.03 9.37 24.05 9.35 24.07 9.34C24.09 9.32 24.1 9.3 24.1 9.27C24.1 9.24 24.09 9.22 24.07 9.2C24.05 9.18 24.03 9.17 24 9.17C23.98 9.17 23.95 9.18 23.93 9.2C23.92 9.21 23.9 9.24 23.9 9.26C23.9 9.28 23.91 9.29 23.91 9.3C23.92 9.31 23.92 9.32 23.93 9.33C23.94 9.34 23.95 9.35 23.96 9.36C23.98 9.36 23.99 9.37 24 9.37Z" fill="#FFFFFF" fill-opacity="1.000000" fill-rule="nonzero"/>
	<path id="Vector" d="M22.18 11.41C22.21 11.41 22.23 11.4 22.25 11.38C22.27 11.37 22.28 11.34 22.28 11.31C22.28 11.29 22.27 11.26 22.25 11.24C22.24 11.22 22.21 11.21 22.18 11.21C22.16 11.21 22.13 11.22 22.11 11.24C22.09 11.26 22.08 11.28 22.08 11.31C22.08 11.34 22.09 11.36 22.11 11.38C22.13 11.4 22.16 11.41 22.18 11.41Z" fill="#FFFFFF" fill-opacity="1.000000" fill-rule="nonzero"/>
	<path id="Vector" d="M21.92 11.9C21.94 11.9 21.97 11.89 21.99 11.87C22.01 11.85 22.02 11.82 22.02 11.8C22.02 11.77 22.01 11.75 21.99 11.73C21.97 11.71 21.95 11.7 21.92 11.7C21.89 11.7 21.87 11.71 21.85 11.73C21.83 11.75 21.82 11.77 21.82 11.8C21.82 11.82 21.83 11.85 21.85 11.87C21.87 11.89 21.89 11.9 21.92 11.9Z" fill="#FFFFFF" fill-opacity="1.000000" fill-rule="nonzero"/>
	<path id="Vector" d="M21.7 12.4C21.72 12.4 21.75 12.39 21.76 12.37C21.78 12.35 21.79 12.33 21.79 12.3C21.79 12.28 21.78 12.25 21.76 12.23C21.75 12.21 21.72 12.2 21.69 12.2C21.67 12.2 21.64 12.21 21.63 12.23C21.61 12.25 21.6 12.27 21.59 12.3C21.59 12.32 21.61 12.35 21.62 12.37C21.64 12.39 21.67 12.4 21.7 12.4Z" fill="#FFFFFF" fill-opacity="1.000000" fill-rule="nonzero"/>
	<path id="Vector" d="M21.35 13.45C21.37 13.45 21.38 13.45 21.39 13.45C21.41 13.44 21.42 13.44 21.43 13.43C21.44 13.42 21.45 13.41 21.45 13.39C21.46 13.38 21.46 13.37 21.46 13.36C21.46 13.34 21.46 13.33 21.46 13.32C21.45 13.3 21.44 13.29 21.44 13.28C21.43 13.27 21.41 13.27 21.4 13.26C21.39 13.25 21.38 13.25 21.36 13.25C21.34 13.25 21.31 13.26 21.3 13.28C21.28 13.3 21.27 13.32 21.26 13.35C21.26 13.37 21.27 13.4 21.29 13.42C21.31 13.43 21.33 13.45 21.35 13.45Z" fill="#FFFFFF" fill-opacity="1.000000" fill-rule="nonzero"/>
	<path id="Vector" d="M35.37 13.86C35.37 13.89 35.39 13.91 35.41 13.93C35.42 13.95 35.45 13.96 35.48 13.96C35.5 13.96 35.53 13.95 35.55 13.93C35.56 13.9 35.57 13.88 35.57 13.85C35.57 13.83 35.56 13.8 35.54 13.79C35.52 13.77 35.5 13.76 35.47 13.76C35.45 13.76 35.42 13.77 35.4 13.79C35.39 13.81 35.38 13.83 35.37 13.86Z" fill="#FFFFFF" fill-opacity="1.000000" fill-rule="nonzero"/>
	<path id="Vector" d="M35.27 13.32C35.27 13.33 35.27 13.35 35.28 13.36C35.28 13.37 35.29 13.38 35.3 13.39C35.31 13.4 35.32 13.41 35.34 13.41C35.35 13.42 35.36 13.42 35.38 13.42C35.4 13.42 35.42 13.4 35.44 13.38C35.46 13.37 35.47 13.34 35.47 13.31C35.47 13.29 35.45 13.27 35.43 13.25C35.42 13.23 35.39 13.22 35.37 13.22C35.35 13.22 35.34 13.22 35.33 13.23C35.32 13.23 35.31 13.24 35.3 13.25C35.29 13.26 35.28 13.27 35.28 13.28C35.27 13.29 35.27 13.31 35.27 13.32Z" fill="#FFFFFF" fill-opacity="1.000000" fill-rule="nonzero"/>
	<path id="Vector" d="M34.56 18.55C34.53 18.55 34.51 18.56 34.49 18.58C34.47 18.6 34.46 18.62 34.45 18.65C34.45 18.66 34.45 18.67 34.46 18.69C34.46 18.7 34.47 18.71 34.48 18.72C34.49 18.73 34.5 18.74 34.51 18.74C34.52 18.75 34.53 18.75 34.55 18.75C34.56 18.75 34.57 18.75 34.59 18.75C34.6 18.74 34.61 18.74 34.62 18.73C34.63 18.72 34.64 18.71 34.64 18.69C34.65 18.68 34.65 18.67 34.65 18.66C34.65 18.63 34.64 18.61 34.62 18.59C34.61 18.57 34.58 18.56 34.56 18.55Z" fill="#FFFFFF" fill-opacity="1.000000" fill-rule="nonzero"/>
	<path id="Vector" d="M25.42 8.52C25.44 8.52 25.46 8.51 25.47 8.5C25.49 8.49 25.5 8.47 25.5 8.46C25.51 8.44 25.51 8.42 25.51 8.4C25.5 8.38 25.5 8.37 25.48 8.35C25.47 8.34 25.45 8.33 25.43 8.33C25.42 8.32 25.4 8.32 25.38 8.33C25.36 8.34 25.35 8.35 25.33 8.36C25.32 8.38 25.32 8.4 25.32 8.41C25.32 8.43 25.32 8.44 25.32 8.45C25.33 8.47 25.34 8.48 25.35 8.49C25.36 8.5 25.37 8.5 25.38 8.51C25.39 8.52 25.41 8.52 25.42 8.52Z" fill="#FFFFFF" fill-opacity="1.000000" fill-rule="nonzero"/>
	<path id="Vector" d="M34.55 11.39C34.57 11.39 34.6 11.37 34.61 11.35C34.63 11.34 34.64 11.31 34.64 11.29C34.64 11.26 34.63 11.24 34.61 11.22C34.59 11.2 34.57 11.19 34.54 11.19C34.53 11.19 34.52 11.19 34.5 11.2C34.49 11.2 34.48 11.21 34.47 11.22C34.46 11.23 34.46 11.24 34.45 11.25C34.45 11.26 34.44 11.28 34.45 11.29C34.45 11.3 34.45 11.32 34.45 11.33C34.46 11.34 34.47 11.35 34.48 11.36C34.49 11.37 34.5 11.38 34.51 11.38C34.52 11.39 34.53 11.39 34.55 11.39Z" fill="#FFFFFF" fill-opacity="1.000000" fill-rule="nonzero"/>
	<path id="Vector" d="M22.48 10.95C22.51 10.95 22.53 10.94 22.55 10.92C22.57 10.9 22.58 10.88 22.58 10.85C22.58 10.84 22.58 10.82 22.57 10.81C22.57 10.8 22.56 10.79 22.55 10.78C22.54 10.77 22.53 10.76 22.51 10.76C22.5 10.75 22.49 10.75 22.47 10.75C22.45 10.75 22.43 10.77 22.41 10.79C22.39 10.8 22.38 10.83 22.38 10.85C22.39 10.88 22.4 10.9 22.42 10.92C22.43 10.94 22.46 10.95 22.48 10.95Z" fill="#FFFFFF" fill-opacity="1.000000" fill-rule="nonzero"/>
	<path id="Vector" d="M23.18 10.1C23.2 10.1 23.23 10.09 23.25 10.07C23.27 10.06 23.28 10.03 23.28 10.01C23.28 9.98 23.27 9.96 23.25 9.94C23.24 9.91 23.21 9.9 23.18 9.9C23.16 9.9 23.13 9.91 23.11 9.93C23.1 9.95 23.08 9.97 23.08 10C23.08 10.02 23.09 10.05 23.11 10.07C23.13 10.09 23.15 10.1 23.18 10.1Z" fill="#FFFFFF" fill-opacity="1.000000" fill-rule="nonzero"/>
	<path id="Vector" d="M22.83 19.46C22.82 19.46 22.8 19.46 22.79 19.47C22.78 19.47 22.77 19.48 22.76 19.49C22.75 19.5 22.74 19.51 22.74 19.53C22.73 19.54 22.73 19.55 22.73 19.57C22.73 19.59 22.74 19.61 22.76 19.63C22.78 19.65 22.8 19.66 22.83 19.66C22.85 19.66 22.88 19.65 22.9 19.63C22.91 19.61 22.92 19.59 22.93 19.56C22.92 19.54 22.91 19.51 22.9 19.49C22.88 19.48 22.86 19.46 22.83 19.46Z" fill="#FFFFFF" fill-opacity="1.000000" fill-rule="nonzero"/>
	<path id="Vector" d="M32.71 9.35C32.72 9.35 32.74 9.35 32.75 9.34C32.76 9.34 32.77 9.33 32.78 9.32C32.79 9.31 32.8 9.3 32.81 9.29C32.81 9.28 32.81 9.26 32.81 9.25C32.81 9.24 32.81 9.22 32.81 9.21C32.8 9.2 32.8 9.19 32.79 9.18C32.78 9.17 32.77 9.16 32.75 9.16C32.74 9.15 32.73 9.15 32.72 9.15C32.69 9.15 32.67 9.16 32.65 9.18C32.63 9.2 32.62 9.22 32.62 9.25C32.62 9.27 32.63 9.3 32.64 9.32C32.66 9.33 32.68 9.35 32.71 9.35Z" fill="#FFFFFF" fill-opacity="1.000000" fill-rule="nonzero"/>
	<path id="Vector" d="M24.02 20.61C24.01 20.6 24 20.61 23.98 20.61C23.97 20.62 23.96 20.62 23.95 20.63C23.94 20.64 23.93 20.65 23.92 20.67C23.92 20.68 23.92 20.69 23.92 20.71C23.92 20.73 23.93 20.76 23.95 20.77C23.97 20.79 23.99 20.8 24.02 20.8C24.04 20.8 24.07 20.79 24.08 20.77C24.1 20.76 24.11 20.73 24.11 20.71C24.12 20.68 24.11 20.66 24.09 20.64C24.07 20.62 24.05 20.61 24.02 20.61Z" fill="#FFFFFF" fill-opacity="1.000000" fill-rule="nonzero"/>
	<path id="Vector" d="M31.8 8.75C31.82 8.75 31.85 8.73 31.86 8.72C31.88 8.7 31.89 8.67 31.89 8.65C31.89 8.62 31.88 8.6 31.86 8.58C31.84 8.56 31.81 8.55 31.79 8.55C31.76 8.55 31.74 8.56 31.72 8.58C31.7 8.6 31.69 8.62 31.69 8.65C31.69 8.66 31.69 8.68 31.7 8.69C31.7 8.7 31.71 8.71 31.72 8.72C31.73 8.73 31.74 8.74 31.76 8.74C31.77 8.75 31.78 8.75 31.8 8.75Z" fill="#FFFFFF" fill-opacity="1.000000" fill-rule="nonzero"/>
	<path id="Vector" d="M26.48 21.82C26.45 21.82 26.43 21.83 26.41 21.84C26.39 21.86 26.37 21.88 26.37 21.91C26.37 21.94 26.38 21.96 26.4 21.98C26.42 22 26.44 22.02 26.47 22.02C26.5 22.02 26.52 22.01 26.54 21.99C26.56 21.97 26.57 21.95 26.57 21.92C26.57 21.9 26.56 21.87 26.54 21.85C26.53 21.83 26.5 21.82 26.48 21.82Z" fill="#FFFFFF" fill-opacity="1.000000" fill-rule="nonzero"/>
	<path id="Vector" d="M21.18 15.09C21.2 15.09 21.23 15.08 21.25 15.06C21.27 15.04 21.28 15.02 21.28 14.99C21.28 14.97 21.27 14.94 21.25 14.92C21.23 14.9 21.21 14.89 21.18 14.89C21.16 14.89 21.13 14.9 21.12 14.92C21.1 14.93 21.08 14.95 21.08 14.98C21.08 15.01 21.09 15.03 21.11 15.05C21.12 15.07 21.15 15.09 21.18 15.09Z" fill="#FFFFFF" fill-opacity="1.000000" fill-rule="nonzero"/>
	<path id="Vector" d="M30.27 8.14C30.29 8.13 30.31 8.12 30.33 8.1C30.35 8.08 30.36 8.06 30.36 8.04C30.36 8.01 30.35 7.99 30.33 7.97C30.31 7.95 30.29 7.94 30.26 7.94C30.25 7.94 30.23 7.94 30.22 7.95C30.21 7.95 30.2 7.96 30.19 7.97C30.18 7.98 30.17 7.99 30.17 8.01C30.16 8.02 30.16 8.03 30.16 8.05C30.16 8.07 30.18 8.1 30.2 8.11C30.21 8.13 30.24 8.14 30.27 8.14Z" fill="#FFFFFF" fill-opacity="1.000000" fill-rule="nonzero"/>
	<path id="Vector" d="M27.54 7.93C27.56 7.93 27.59 7.92 27.6 7.9C27.62 7.88 27.63 7.86 27.63 7.83C27.63 7.81 27.62 7.78 27.6 7.76C27.58 7.75 27.55 7.74 27.53 7.74C27.5 7.74 27.48 7.75 27.46 7.77C27.44 7.78 27.43 7.81 27.43 7.83C27.43 7.86 27.44 7.89 27.46 7.91C27.48 7.92 27.51 7.93 27.54 7.93Z" fill="#FFFFFF" fill-opacity="1.000000" fill-rule="nonzero"/>
	<path id="Vector" d="M28.08 7.89C28.11 7.89 28.13 7.88 28.15 7.86C28.17 7.85 28.18 7.82 28.18 7.8C28.18 7.77 28.17 7.74 28.15 7.72C28.13 7.7 28.1 7.69 28.08 7.69C28.05 7.69 28.03 7.7 28.01 7.72C27.99 7.74 27.98 7.76 27.98 7.79C27.98 7.8 27.98 7.82 27.99 7.83C27.99 7.84 28 7.85 28.01 7.86C28.02 7.87 28.03 7.88 28.04 7.89C28.05 7.89 28.07 7.89 28.08 7.89Z" fill="#FFFFFF" fill-opacity="1.000000" fill-rule="nonzero"/>
	<path id="Vector" d="M35.23 12.89C35.25 12.89 35.28 12.88 35.29 12.86C35.31 12.84 35.32 12.81 35.32 12.79C35.32 12.76 35.31 12.74 35.29 12.72C35.27 12.7 35.25 12.69 35.22 12.69C35.21 12.69 35.2 12.69 35.18 12.7C35.17 12.7 35.16 12.71 35.15 12.72C35.14 12.73 35.13 12.74 35.13 12.76C35.12 12.77 35.12 12.78 35.12 12.8C35.13 12.82 35.14 12.85 35.16 12.86C35.18 12.88 35.2 12.89 35.23 12.89Z" fill="#FFFFFF" fill-opacity="1.000000" fill-rule="nonzero"/>
	<path id="Vector" d="M35.23 17.05C35.2 17.05 35.18 17.06 35.16 17.08C35.14 17.1 35.13 17.12 35.13 17.14C35.13 17.17 35.14 17.19 35.15 17.21C35.17 17.23 35.19 17.25 35.22 17.25C35.24 17.25 35.27 17.24 35.29 17.22C35.31 17.21 35.32 17.18 35.33 17.15C35.33 17.13 35.32 17.1 35.3 17.08C35.28 17.06 35.25 17.05 35.23 17.05Z" fill="#FFFFFF" fill-opacity="1.000000" fill-rule="nonzero"/>
	<path id="Vector" d="M35.03 12.37C35.04 12.37 35.05 12.37 35.07 12.37C35.08 12.36 35.09 12.35 35.1 12.34C35.11 12.33 35.12 12.32 35.12 12.31C35.13 12.3 35.13 12.28 35.13 12.27C35.13 12.25 35.12 12.22 35.1 12.2C35.09 12.18 35.06 12.17 35.04 12.17C35.01 12.17 34.98 12.18 34.97 12.2C34.95 12.22 34.94 12.24 34.94 12.27C34.93 12.29 34.94 12.32 34.96 12.34C34.98 12.36 35 12.37 35.03 12.37Z" fill="#FFFFFF" fill-opacity="1.000000" fill-rule="nonzero"/>
	<path id="Vector" d="M33.15 9.7C33.17 9.7 33.2 9.68 33.21 9.66C33.23 9.64 33.24 9.62 33.24 9.59C33.24 9.57 33.23 9.54 33.21 9.53C33.19 9.51 33.16 9.5 33.14 9.5C33.11 9.5 33.09 9.51 33.07 9.53C33.05 9.55 33.04 9.57 33.04 9.6C33.04 9.61 33.05 9.62 33.05 9.64C33.06 9.65 33.06 9.66 33.07 9.67C33.08 9.68 33.09 9.69 33.11 9.69C33.12 9.7 33.13 9.7 33.15 9.7Z" fill="#FFFFFF" fill-opacity="1.000000" fill-rule="nonzero"/>
	<path id="Vector" d="M34.24 10.92C34.27 10.92 34.29 10.91 34.31 10.9C34.33 10.88 34.34 10.86 34.34 10.83C34.34 10.8 34.33 10.78 34.32 10.76C34.3 10.74 34.27 10.73 34.25 10.73C34.22 10.72 34.2 10.73 34.18 10.75C34.16 10.77 34.15 10.79 34.14 10.82C34.14 10.83 34.14 10.84 34.15 10.86C34.15 10.87 34.16 10.88 34.17 10.89C34.18 10.9 34.19 10.91 34.2 10.92C34.21 10.92 34.23 10.92 34.24 10.92Z" fill="#FFFFFF" fill-opacity="1.000000" fill-rule="nonzero"/>
	<path id="Vector" d="M22.81 10.51C22.83 10.51 22.85 10.5 22.87 10.49C22.88 10.48 22.9 10.47 22.9 10.45C22.91 10.43 22.91 10.41 22.91 10.39C22.9 10.38 22.9 10.36 22.88 10.34C22.87 10.33 22.85 10.32 22.83 10.32C22.81 10.31 22.79 10.31 22.78 10.32C22.76 10.33 22.74 10.34 22.73 10.36C22.72 10.37 22.72 10.39 22.72 10.41C22.72 10.44 22.73 10.46 22.74 10.48C22.76 10.5 22.79 10.51 22.81 10.51Z" fill="#FFFFFF" fill-opacity="1.000000" fill-rule="nonzero"/>
	<path id="Vector" d="M33.54 10.08C33.56 10.08 33.59 10.07 33.61 10.05C33.62 10.03 33.64 10.01 33.64 9.98C33.64 9.96 33.63 9.93 33.61 9.91C33.59 9.89 33.57 9.88 33.55 9.88C33.53 9.88 33.52 9.88 33.51 9.88C33.49 9.89 33.48 9.9 33.47 9.91C33.46 9.92 33.45 9.93 33.45 9.94C33.44 9.95 33.44 9.97 33.44 9.98C33.44 9.99 33.44 10.01 33.45 10.02C33.45 10.03 33.46 10.04 33.47 10.05C33.48 10.06 33.49 10.06 33.5 10.07C33.51 10.07 33.52 10.08 33.54 10.08Z" fill="#FFFFFF" fill-opacity="1.000000" fill-rule="nonzero"/>
	<path id="Vector" d="M33.91 10.49C33.93 10.49 33.96 10.48 33.98 10.46C33.99 10.44 34 10.42 34 10.39C34 10.38 34 10.37 34 10.35C33.99 10.34 33.99 10.33 33.98 10.32C33.97 10.31 33.96 10.31 33.95 10.3C33.94 10.3 33.92 10.29 33.91 10.29C33.9 10.29 33.88 10.29 33.87 10.3C33.86 10.3 33.85 10.31 33.84 10.32C33.83 10.33 33.82 10.34 33.81 10.35C33.81 10.36 33.81 10.37 33.8 10.39C33.8 10.4 33.81 10.41 33.81 10.43C33.82 10.44 33.83 10.45 33.83 10.46C33.84 10.47 33.86 10.48 33.87 10.48C33.88 10.49 33.89 10.49 33.91 10.49Z" fill="#FFFFFF" fill-opacity="1.000000" fill-rule="nonzero"/>
	<path id="Vector" d="M34.82 18.07C34.79 18.07 34.77 18.08 34.75 18.1C34.73 18.12 34.72 18.14 34.72 18.17C34.72 18.18 34.72 18.19 34.72 18.21C34.73 18.22 34.74 18.23 34.75 18.24C34.76 18.25 34.77 18.26 34.78 18.26C34.79 18.27 34.81 18.27 34.82 18.27C34.85 18.27 34.87 18.26 34.89 18.24C34.91 18.22 34.91 18.19 34.91 18.17C34.91 18.14 34.9 18.12 34.88 18.1C34.87 18.08 34.84 18.07 34.82 18.07Z" fill="#FFFFFF" fill-opacity="1.000000" fill-rule="nonzero"/>
	<path id="Vector" d="M30.79 8.3C30.8 8.3 30.82 8.3 30.83 8.29C30.84 8.29 30.85 8.28 30.86 8.27C30.87 8.26 30.87 8.25 30.88 8.24C30.88 8.22 30.89 8.21 30.88 8.2C30.88 8.19 30.88 8.17 30.88 8.16C30.87 8.15 30.86 8.14 30.85 8.13C30.84 8.12 30.83 8.12 30.82 8.11C30.81 8.11 30.8 8.1 30.78 8.11C30.76 8.11 30.73 8.12 30.72 8.13C30.7 8.15 30.69 8.18 30.68 8.2C30.68 8.21 30.69 8.23 30.69 8.24C30.7 8.25 30.71 8.26 30.72 8.27C30.73 8.28 30.74 8.29 30.75 8.29C30.76 8.3 30.78 8.3 30.79 8.3Z" fill="#FFFFFF" fill-opacity="1.000000" fill-rule="nonzero"/>
	<path id="Vector" d="M26.45 8.15C26.46 8.15 26.47 8.14 26.49 8.14C26.5 8.13 26.51 8.13 26.52 8.12C26.53 8.11 26.54 8.1 26.54 8.08C26.55 8.07 26.55 8.06 26.55 8.04C26.55 8.02 26.54 8 26.52 7.98C26.5 7.96 26.48 7.95 26.45 7.95C26.44 7.95 26.43 7.95 26.41 7.96C26.4 7.96 26.39 7.97 26.38 7.98C26.37 7.99 26.36 8 26.36 8.01C26.35 8.02 26.35 8.04 26.35 8.05C26.35 8.07 26.36 8.1 26.38 8.11C26.4 8.13 26.42 8.14 26.45 8.15Z" fill="#FFFFFF" fill-opacity="1.000000" fill-rule="nonzero"/>
	<path id="Vector" d="M35.37 16.52C35.35 16.52 35.34 16.53 35.32 16.54C35.3 16.55 35.29 16.56 35.28 16.58C35.28 16.6 35.28 16.62 35.28 16.64C35.28 16.66 35.29 16.67 35.31 16.69C35.32 16.7 35.34 16.71 35.36 16.71C35.38 16.72 35.4 16.71 35.41 16.71C35.43 16.7 35.45 16.69 35.46 16.67C35.47 16.65 35.47 16.63 35.47 16.62C35.47 16.59 35.46 16.57 35.44 16.55C35.42 16.53 35.4 16.52 35.37 16.52Z" fill="#FFFFFF" fill-opacity="1.000000" fill-rule="nonzero"/>
	<path id="Vector" d="M30.27 21.82C30.25 21.82 30.22 21.83 30.21 21.85C30.19 21.87 30.18 21.89 30.18 21.92C30.18 21.93 30.19 21.94 30.19 21.96C30.2 21.97 30.2 21.98 30.21 21.99C30.22 22 30.23 22 30.24 22.01C30.26 22.01 30.27 22.01 30.28 22.01C30.31 22.01 30.33 22 30.35 21.98C30.37 21.97 30.38 21.94 30.38 21.92C30.38 21.9 30.38 21.89 30.37 21.88C30.36 21.87 30.36 21.85 30.35 21.84C30.34 21.84 30.33 21.83 30.31 21.82C30.3 21.82 30.29 21.82 30.27 21.82Z" fill="#FFFFFF" fill-opacity="1.000000" fill-rule="nonzero"/>
	<path id="Vector" d="M23.18 19.87C23.17 19.88 23.16 19.88 23.15 19.88C23.13 19.89 23.12 19.9 23.12 19.91C23.11 19.92 23.1 19.93 23.1 19.94C23.09 19.96 23.09 19.97 23.09 19.98C23.1 20 23.1 20.01 23.11 20.02C23.11 20.03 23.12 20.04 23.13 20.05C23.14 20.06 23.15 20.06 23.17 20.07C23.18 20.07 23.19 20.07 23.2 20.07C23.22 20.07 23.23 20.06 23.24 20.06C23.25 20.05 23.26 20.04 23.27 20.03C23.28 20.02 23.28 20.01 23.29 20C23.29 19.99 23.29 19.97 23.29 19.96C23.29 19.95 23.29 19.94 23.28 19.92C23.27 19.91 23.26 19.9 23.26 19.9C23.24 19.89 23.23 19.88 23.22 19.88C23.21 19.87 23.2 19.87 23.18 19.87Z" fill="#FFFFFF" fill-opacity="1.000000" fill-rule="nonzero"/>
	<path id="Vector" d="M27.55 22.03C27.52 22.03 27.5 22.04 27.48 22.06C27.46 22.08 27.45 22.1 27.45 22.13C27.45 22.14 27.46 22.16 27.47 22.18C27.48 22.2 27.49 22.21 27.51 22.22C27.53 22.23 27.55 22.23 27.57 22.22C27.59 22.22 27.61 22.21 27.62 22.2C27.63 22.18 27.64 22.16 27.65 22.15C27.65 22.13 27.65 22.11 27.64 22.09C27.63 22.07 27.62 22.05 27.6 22.04C27.59 22.03 27.57 22.03 27.55 22.03Z" fill="#FFFFFF" fill-opacity="1.000000" fill-rule="nonzero"/>
	<path id="Vector" d="M33.16 20.25C33.13 20.25 33.11 20.26 33.09 20.28C33.07 20.29 33.06 20.32 33.05 20.34C33.05 20.36 33.06 20.37 33.06 20.38C33.07 20.39 33.07 20.41 33.08 20.42C33.09 20.43 33.1 20.43 33.12 20.44C33.13 20.44 33.14 20.45 33.16 20.45C33.18 20.45 33.21 20.43 33.22 20.42C33.24 20.4 33.25 20.37 33.25 20.35C33.25 20.34 33.25 20.32 33.25 20.31C33.24 20.3 33.23 20.29 33.23 20.28C33.22 20.27 33.21 20.26 33.19 20.26C33.18 20.25 33.17 20.25 33.16 20.25Z" fill="#FFFFFF" fill-opacity="1.000000" fill-rule="nonzero"/>
	<path id="Vector" d="M28.1 22.07C28.09 22.07 28.08 22.07 28.06 22.07C28.05 22.08 28.04 22.09 28.03 22.1C28.02 22.11 28.01 22.12 28.01 22.13C28 22.14 28 22.16 28 22.17C28 22.2 28.02 22.22 28.03 22.24C28.05 22.26 28.08 22.26 28.1 22.26C28.13 22.26 28.15 22.25 28.17 22.23C28.19 22.22 28.2 22.19 28.2 22.17C28.2 22.14 28.19 22.12 28.17 22.1C28.15 22.08 28.13 22.07 28.1 22.07Z" fill="#FFFFFF" fill-opacity="1.000000" fill-rule="nonzero"/>
	<path id="Vector" d="M32.72 20.6C32.7 20.6 32.68 20.61 32.66 20.63C32.64 20.65 32.63 20.68 32.63 20.7C32.63 20.73 32.64 20.75 32.66 20.77C32.68 20.79 32.7 20.8 32.73 20.8C32.75 20.8 32.78 20.79 32.8 20.77C32.82 20.75 32.83 20.73 32.83 20.7C32.83 20.69 32.83 20.67 32.82 20.66C32.82 20.65 32.81 20.64 32.8 20.63C32.79 20.62 32.78 20.61 32.76 20.61C32.75 20.6 32.74 20.6 32.72 20.6Z" fill="#FFFFFF" fill-opacity="1.000000" fill-rule="nonzero"/>
	<path id="Vector" d="M24.48 20.92C24.46 20.92 24.45 20.92 24.44 20.93C24.42 20.93 24.41 20.94 24.4 20.95C24.39 20.96 24.38 20.97 24.38 20.98C24.37 20.99 24.37 21.01 24.37 21.02C24.37 21.03 24.37 21.05 24.38 21.06C24.38 21.07 24.39 21.08 24.4 21.09C24.41 21.1 24.42 21.11 24.43 21.11C24.44 21.12 24.45 21.12 24.46 21.12C24.48 21.12 24.49 21.12 24.5 21.11C24.51 21.11 24.52 21.1 24.53 21.09C24.54 21.08 24.55 21.07 24.56 21.06C24.56 21.05 24.56 21.04 24.56 21.03C24.57 21 24.56 20.97 24.54 20.96C24.52 20.94 24.5 20.92 24.48 20.92Z" fill="#FFFFFF" fill-opacity="1.000000" fill-rule="nonzero"/>
	<path id="Vector" d="M23.58 9.72C23.61 9.72 23.63 9.7 23.65 9.69C23.67 9.67 23.68 9.64 23.68 9.62C23.68 9.6 23.67 9.59 23.67 9.58C23.66 9.56 23.65 9.55 23.64 9.54C23.63 9.54 23.62 9.53 23.61 9.52C23.59 9.52 23.58 9.52 23.57 9.52C23.55 9.52 23.54 9.52 23.53 9.53C23.52 9.54 23.51 9.54 23.5 9.55C23.49 9.56 23.49 9.58 23.48 9.59C23.48 9.6 23.48 9.61 23.48 9.63C23.48 9.65 23.49 9.67 23.51 9.69C23.53 9.71 23.56 9.72 23.58 9.72Z" fill="#FFFFFF" fill-opacity="1.000000" fill-rule="nonzero"/>
	<path id="Vector" d="M21.19 14.54C21.21 14.54 21.22 14.54 21.23 14.53C21.24 14.53 21.26 14.52 21.27 14.51C21.28 14.5 21.28 14.49 21.29 14.48C21.3 14.47 21.3 14.45 21.3 14.44C21.3 14.42 21.29 14.39 21.27 14.37C21.26 14.35 21.23 14.34 21.21 14.34C21.18 14.34 21.15 14.35 21.13 14.37C21.11 14.39 21.1 14.41 21.1 14.44C21.1 14.46 21.11 14.49 21.13 14.51C21.14 14.52 21.17 14.53 21.19 14.54Z" fill="#FFFFFF" fill-opacity="1.000000" fill-rule="nonzero"/>
	<path id="Vector" d="M32.27 9.03C32.28 9.03 32.29 9.03 32.31 9.02C32.32 9.02 32.33 9.01 32.34 9C32.35 8.99 32.35 8.98 32.36 8.97C32.36 8.95 32.36 8.94 32.36 8.93C32.36 8.9 32.35 8.88 32.33 8.86C32.31 8.84 32.29 8.83 32.26 8.83C32.25 8.83 32.24 8.84 32.22 8.84C32.21 8.85 32.2 8.85 32.19 8.86C32.18 8.87 32.18 8.88 32.17 8.9C32.17 8.91 32.16 8.92 32.16 8.93C32.16 8.95 32.17 8.96 32.17 8.97C32.18 8.99 32.19 9 32.2 9.01C32.21 9.01 32.22 9.02 32.23 9.02C32.24 9.03 32.26 9.03 32.27 9.03Z" fill="#FFFFFF" fill-opacity="1.000000" fill-rule="nonzero"/>
	<path id="Vector" d="M35.48 15.98C35.45 15.98 35.43 15.99 35.41 16.01C35.39 16.02 35.38 16.05 35.38 16.07C35.38 16.1 35.39 16.12 35.4 16.14C35.42 16.16 35.45 16.17 35.47 16.17C35.48 16.18 35.5 16.17 35.51 16.17C35.52 16.16 35.54 16.16 35.55 16.15C35.56 16.14 35.56 16.13 35.57 16.11C35.57 16.1 35.58 16.09 35.57 16.07C35.57 16.05 35.56 16.02 35.54 16.01C35.53 15.99 35.5 15.98 35.48 15.98Z" fill="#FFFFFF" fill-opacity="1.000000" fill-rule="nonzero"/>
	<path id="Vector" d="M31.32 21.45C31.31 21.44 31.29 21.45 31.28 21.45C31.27 21.46 31.26 21.46 31.25 21.47C31.24 21.48 31.23 21.49 31.22 21.51C31.22 21.52 31.22 21.53 31.22 21.55C31.22 21.57 31.23 21.6 31.25 21.61C31.27 21.63 31.29 21.64 31.32 21.64C31.34 21.64 31.37 21.63 31.39 21.61C31.4 21.6 31.42 21.57 31.42 21.54C31.42 21.52 31.41 21.49 31.39 21.48C31.37 21.46 31.35 21.45 31.32 21.45Z" fill="#FFFFFF" fill-opacity="1.000000" fill-rule="nonzero"/>
	<path id="Vector" d="M21.47 16.62C21.47 16.6 21.45 16.57 21.44 16.56C21.42 16.54 21.39 16.53 21.37 16.53C21.34 16.53 21.32 16.54 21.3 16.56C21.28 16.58 21.27 16.6 21.27 16.63C21.27 16.64 21.28 16.65 21.28 16.67C21.29 16.68 21.29 16.69 21.3 16.7C21.31 16.71 21.32 16.72 21.34 16.72C21.35 16.73 21.36 16.73 21.38 16.73C21.4 16.73 21.43 16.71 21.44 16.69C21.46 16.67 21.47 16.65 21.47 16.62Z" fill="#FFFFFF" fill-opacity="1.000000" fill-rule="nonzero"/>
	<path id="Vector" d="M21.3 15.54C21.3 15.51 21.29 15.49 21.27 15.47C21.25 15.45 21.23 15.44 21.2 15.44C21.19 15.44 21.18 15.45 21.16 15.45C21.15 15.46 21.14 15.46 21.13 15.47C21.12 15.48 21.11 15.5 21.11 15.51C21.1 15.52 21.1 15.53 21.1 15.55C21.1 15.57 21.12 15.6 21.14 15.61C21.16 15.63 21.18 15.64 21.21 15.64C21.22 15.64 21.23 15.63 21.24 15.63C21.26 15.62 21.27 15.62 21.27 15.61C21.28 15.6 21.29 15.59 21.29 15.58C21.3 15.56 21.3 15.55 21.3 15.54Z" fill="#FFFFFF" fill-opacity="1.000000" fill-rule="nonzero"/>
	<path id="Vector" d="M21.52 17.06C21.51 17.06 21.49 17.06 21.48 17.07C21.47 17.07 21.46 17.08 21.45 17.09C21.44 17.1 21.43 17.11 21.43 17.12C21.42 17.13 21.42 17.15 21.42 17.16C21.42 17.17 21.42 17.19 21.43 17.2C21.43 17.21 21.44 17.22 21.45 17.23C21.46 17.24 21.47 17.25 21.48 17.25C21.49 17.25 21.5 17.26 21.52 17.26C21.54 17.26 21.57 17.25 21.59 17.23C21.6 17.21 21.62 17.19 21.62 17.16C21.62 17.14 21.61 17.11 21.59 17.09C21.57 17.07 21.55 17.06 21.52 17.06Z" fill="#FFFFFF" fill-opacity="1.000000" fill-rule="nonzero"/>
	<path id="Vector" d="M22.49 19.02C22.46 19.03 22.44 19.04 22.42 19.06C22.4 19.08 22.4 19.1 22.4 19.13C22.4 19.14 22.4 19.15 22.4 19.16C22.41 19.17 22.42 19.19 22.43 19.19C22.43 19.2 22.45 19.21 22.46 19.21C22.47 19.22 22.48 19.22 22.49 19.22C22.51 19.22 22.52 19.22 22.53 19.21C22.54 19.21 22.55 19.2 22.56 19.19C22.57 19.19 22.58 19.17 22.58 19.16C22.59 19.15 22.59 19.14 22.59 19.13C22.59 19.11 22.59 19.1 22.58 19.09C22.58 19.07 22.57 19.06 22.56 19.05C22.55 19.04 22.54 19.04 22.53 19.03C22.51 19.03 22.5 19.02 22.49 19.02Z" fill="#FFFFFF" fill-opacity="1.000000" fill-rule="nonzero"/>
	<path id="Vector" d="M21.71 17.58C21.69 17.58 21.68 17.58 21.67 17.58C21.66 17.59 21.65 17.59 21.64 17.6C21.63 17.61 21.62 17.62 21.61 17.63C21.61 17.64 21.61 17.66 21.61 17.67C21.6 17.69 21.61 17.71 21.62 17.73C21.63 17.74 21.64 17.76 21.66 17.76C21.68 17.77 21.7 17.78 21.72 17.77C21.74 17.77 21.75 17.76 21.77 17.75C21.78 17.74 21.79 17.72 21.8 17.7C21.8 17.68 21.8 17.66 21.79 17.64C21.79 17.63 21.78 17.61 21.76 17.6C21.75 17.59 21.73 17.58 21.71 17.58Z" fill="#FFFFFF" fill-opacity="1.000000" fill-rule="nonzero"/>
	<path id="Vector" d="M34.81 11.87C34.84 11.87 34.86 11.85 34.88 11.84C34.9 11.82 34.91 11.79 34.91 11.77C34.91 11.74 34.89 11.72 34.88 11.7C34.86 11.68 34.83 11.67 34.81 11.67C34.79 11.67 34.78 11.68 34.77 11.68C34.76 11.68 34.75 11.69 34.74 11.7C34.73 11.71 34.72 11.72 34.72 11.73C34.71 11.74 34.71 11.76 34.71 11.77C34.71 11.78 34.71 11.8 34.72 11.81C34.72 11.82 34.73 11.83 34.74 11.84C34.75 11.85 34.76 11.86 34.77 11.86C34.79 11.87 34.8 11.87 34.81 11.87Z" fill="#FFFFFF" fill-opacity="1.000000" fill-rule="nonzero"/>
	<path id="Vector" d="M21.51 12.92C21.52 12.92 21.53 12.92 21.55 12.91C21.56 12.91 21.57 12.9 21.58 12.89C21.59 12.88 21.6 12.87 21.6 12.85C21.61 12.84 21.61 12.83 21.61 12.81C21.61 12.79 21.59 12.77 21.58 12.75C21.56 12.73 21.53 12.72 21.51 12.72C21.49 12.72 21.48 12.73 21.47 12.73C21.46 12.74 21.45 12.74 21.44 12.75C21.43 12.76 21.42 12.77 21.42 12.78C21.41 12.79 21.41 12.81 21.41 12.82C21.41 12.85 21.42 12.87 21.44 12.89C21.46 12.91 21.48 12.92 21.51 12.92Z" fill="#FFFFFF" fill-opacity="1.000000" fill-rule="nonzero"/>
	<path id="Vector" d="M22.19 18.56C22.18 18.56 22.16 18.57 22.15 18.57C22.14 18.58 22.13 18.58 22.12 18.59C22.11 18.6 22.11 18.61 22.1 18.63C22.1 18.64 22.1 18.65 22.1 18.66C22.1 18.67 22.1 18.69 22.1 18.7C22.11 18.71 22.12 18.72 22.13 18.73C22.13 18.74 22.15 18.75 22.16 18.75C22.17 18.76 22.18 18.76 22.2 18.76C22.21 18.76 22.22 18.75 22.23 18.75C22.25 18.74 22.26 18.74 22.26 18.73C22.27 18.72 22.28 18.71 22.28 18.69C22.29 18.68 22.29 18.67 22.29 18.65C22.29 18.64 22.29 18.63 22.28 18.62C22.27 18.61 22.27 18.6 22.26 18.59C22.25 18.58 22.24 18.57 22.23 18.57C22.21 18.57 22.2 18.56 22.19 18.56Z" fill="#FFFFFF" fill-opacity="1.000000" fill-rule="nonzero"/>
	<path id="Vector" d="M25.95 21.65C25.93 21.65 25.92 21.66 25.91 21.66C25.89 21.67 25.88 21.68 25.87 21.69C25.87 21.7 25.86 21.71 25.85 21.72C25.85 21.73 25.85 21.75 25.85 21.76C25.85 21.77 25.85 21.78 25.86 21.8C25.86 21.81 25.87 21.82 25.88 21.83C25.89 21.83 25.9 21.84 25.91 21.84C25.92 21.85 25.94 21.85 25.95 21.85C25.98 21.85 26 21.84 26.02 21.82C26.03 21.8 26.04 21.78 26.04 21.75C26.04 21.73 26.03 21.7 26.01 21.68C26 21.67 25.97 21.65 25.95 21.65Z" fill="#FFFFFF" fill-opacity="1.000000" fill-rule="nonzero"/>
	<path id="Vector" d="M29.19 7.93C29.21 7.93 29.23 7.92 29.25 7.9C29.27 7.88 29.28 7.85 29.28 7.83C29.27 7.8 29.26 7.78 29.25 7.76C29.23 7.74 29.2 7.73 29.18 7.73C29.16 7.73 29.15 7.74 29.14 7.74C29.13 7.75 29.12 7.75 29.11 7.76C29.1 7.77 29.09 7.78 29.09 7.79C29.08 7.81 29.08 7.82 29.08 7.83C29.08 7.84 29.08 7.86 29.09 7.87C29.09 7.88 29.1 7.89 29.11 7.9C29.12 7.91 29.13 7.92 29.15 7.92C29.16 7.93 29.17 7.93 29.19 7.93Z" fill="#FFFFFF" fill-opacity="1.000000" fill-rule="nonzero"/>
	<path id="Vector" d="M29.2 22.03C29.18 22.03 29.15 22.04 29.13 22.05C29.12 22.07 29.1 22.09 29.1 22.12C29.1 22.14 29.11 22.16 29.12 22.17C29.13 22.19 29.14 22.2 29.16 22.21C29.18 22.22 29.19 22.22 29.21 22.22C29.23 22.22 29.25 22.21 29.27 22.2C29.28 22.18 29.29 22.17 29.29 22.15C29.3 22.13 29.3 22.11 29.29 22.09C29.29 22.07 29.27 22.06 29.26 22.05C29.24 22.03 29.22 22.03 29.2 22.03Z" fill="#FFFFFF" fill-opacity="1.000000" fill-rule="nonzero"/>
	<path id="Vector" d="M8.15 20.49C8.98 18.91 9.88 17.35 10.62 15.72C11.44 13.93 10.41 12.06 8.52 11.66C6.76 11.29 5.15 12.49 4.94 14.33C4.75 15.95 5.99 17.32 7.73 17.4C7.99 17.42 8.25 17.4 8.62 17.4L6.81 20.49L8.15 20.49L8.15 20.49ZM8.01 16.44C6.85 16.46 6.01 15.66 6 14.54C5.99 13.41 6.83 12.57 7.97 12.58C9.05 12.59 9.84 13.39 9.85 14.49C9.86 15.62 9.1 16.43 8.01 16.44Z" fill="#FFFFFF" fill-opacity="1.000000" fill-rule="nonzero"/>
	<path id="Vector" d="M2.83 11.71C2.22 11.99 1.79 12.17 1.38 12.39C0.92 12.62 0.47 12.89 0 13.15C0.01 13.5 0.03 13.81 0.04 14.18L1.66 13.39L1.66 19.6L0.92 19.6L0.92 20.47L3.6 20.47L3.6 19.6L2.86 19.6C2.86 19.6 2.86 16.85 2.86 15.6C2.85 14.37 2.88 13.14 2.83 11.71Z" fill="#FFFFFF" fill-opacity="1.000000" fill-rule="nonzero"/>
	<path id="Vector" d="M0.04 8.55L12.25 8.55L12.25 9.14L0.04 9.14L0.04 8.55Z" fill="#FFFFFF" fill-opacity="1.000000" fill-rule="evenodd"/>
	<path id="Vector" d="M0.04 22.99L12.25 22.99L12.25 23.58L0.04 23.58L0.04 22.99Z" fill="#FFFFFF" fill-opacity="1.000000" fill-rule="evenodd"/>
	<path id="Vector" d="M45.15 8.55L59.08 8.55L59.08 9.14L45.15 9.14L45.15 8.55Z" fill="#FFFFFF" fill-opacity="1.000000" fill-rule="evenodd"/>
	<path id="Vector" d="M45.15 22.99L59.08 22.99L59.08 23.58L45.15 23.58L45.15 22.99Z" fill="#FFFFFF" fill-opacity="1.000000" fill-rule="evenodd"/>
	<path id="Vector" d="M45.99 18.13C45.99 18.59 46.11 19.03 46.34 19.43C46.57 19.83 46.89 20.16 47.29 20.39C47.68 20.62 48.13 20.74 48.59 20.75C49.05 20.75 49.5 20.63 49.9 20.41C50.29 20.18 50.62 19.85 50.86 19.46C51.09 19.07 51.22 18.62 51.22 18.16C51.23 17.7 51.11 17.25 50.89 16.85C50.66 16.45 50.34 16.12 49.95 15.89C50.36 15.6 50.66 15.19 50.82 14.72C50.98 14.25 50.99 13.74 50.84 13.27C50.69 12.79 50.39 12.38 49.99 12.08C49.59 11.79 49.1 11.63 48.61 11.63C48.11 11.63 47.62 11.79 47.22 12.08C46.82 12.38 46.52 12.79 46.37 13.27C46.22 13.74 46.23 14.25 46.39 14.72C46.55 15.19 46.86 15.6 47.26 15.89C46.88 16.12 46.56 16.45 46.33 16.84C46.11 17.23 45.99 17.68 45.99 18.13ZM47.19 13.97C47.19 13.69 47.28 13.42 47.43 13.19C47.58 12.96 47.8 12.78 48.05 12.67C48.31 12.56 48.59 12.53 48.86 12.58C49.13 12.63 49.38 12.76 49.58 12.95C49.78 13.14 49.92 13.39 49.98 13.66C50.04 13.93 50.02 14.21 49.93 14.47C49.83 14.73 49.66 14.95 49.43 15.11C49.21 15.27 48.94 15.37 48.66 15.38C48.64 15.38 48.63 15.38 48.61 15.38C48.59 15.38 48.57 15.38 48.55 15.38C48.18 15.36 47.84 15.21 47.59 14.95C47.34 14.68 47.19 14.33 47.19 13.97L47.19 13.97ZM48.61 16.44C48.94 16.44 49.27 16.54 49.54 16.72C49.82 16.91 50.04 17.17 50.17 17.48C50.29 17.79 50.33 18.13 50.26 18.46C50.2 18.78 50.04 19.09 49.8 19.32C49.56 19.56 49.26 19.72 48.94 19.78C48.61 19.85 48.27 19.82 47.96 19.69C47.65 19.56 47.39 19.34 47.2 19.07C47.02 18.79 46.92 18.46 46.92 18.13C46.92 17.68 47.1 17.25 47.41 16.93C47.73 16.62 48.16 16.44 48.61 16.44L48.61 16.44Z" fill="#FFFFFF" fill-opacity="1.000000" fill-rule="nonzero"/>
	<path id="Vector" d="M55.7 20.73C55.07 20.73 54.54 20.57 54.1 20.25C53.65 19.93 53.3 19.49 53.04 18.92L53.79 18.4C54 18.85 54.26 19.2 54.57 19.46C54.89 19.71 55.27 19.83 55.73 19.83C56.23 19.83 56.61 19.69 56.88 19.41C57.17 19.12 57.31 18.73 57.31 18.23C57.31 17.62 57.12 17.17 56.76 16.88C56.39 16.59 55.82 16.45 55.04 16.45L55.04 15.56C55.75 15.56 56.29 15.43 56.65 15.16C57.02 14.89 57.2 14.49 57.2 13.95C57.2 13.54 57.08 13.2 56.83 12.96C56.59 12.71 56.23 12.58 55.76 12.58C55.32 12.58 54.94 12.72 54.62 12.99C54.31 13.26 54.08 13.62 53.94 14.09L53.18 13.65C53.32 13.24 53.52 12.89 53.77 12.6C54.01 12.31 54.31 12.09 54.65 11.93C54.99 11.77 55.36 11.68 55.77 11.68C56.48 11.68 57.04 11.88 57.46 12.29C57.89 12.69 58.1 13.23 58.1 13.9C58.1 14.32 58.01 14.68 57.83 15C57.66 15.33 57.42 15.58 57.11 15.77C56.82 15.95 56.48 16.05 56.1 16.06L56.1 15.89C56.73 15.89 57.24 16.1 57.64 16.53C58.05 16.95 58.25 17.52 58.25 18.23C58.25 18.75 58.15 19.2 57.94 19.57C57.74 19.94 57.45 20.23 57.06 20.44C56.68 20.63 56.22 20.73 55.7 20.73Z" fill="#FFFFFF" fill-opacity="1.000000" fill-rule="nonzero"/>
</svg>
