<svg width="32.000000" height="32.000000" viewBox="0 0 32 32" fill="none" xmlns="http://www.w3.org/2000/svg" xmlns:xlink="http://www.w3.org/1999/xlink">
	<desc>
			Created with Pixso.
	</desc>
	<defs>
		<clipPath id="clip1_67">
			<rect id="footer-phone 2" width="32.000000" height="32.000000" fill="white" fill-opacity="0"/>
		</clipPath>
	</defs>
	<rect id="footer-phone 2" width="32.000000" height="32.000000" fill="#FFFFFF" fill-opacity="0"/>
	<g clip-path="url(#clip1_67)">
		<path id="Vector" d="M23.96 11.5C23.96 11.5 23.96 11.49 23.96 11.49C23.96 11.49 23.95 11.49 23.95 11.48C23.6 11.09 23.09 10.84 22.53 10.84L11.99 10.84C11.43 10.84 10.92 11.09 10.58 11.48L10.57 11.48C10.57 11.48 10.57 11.49 10.56 11.49C10.56 11.49 10.56 11.5 10.56 11.5C10.27 11.83 10.09 12.27 10.09 12.75L10.09 15.72L7.84 15.72C7.68 15.72 7.56 15.84 7.56 16C7.56 16.15 7.68 16.28 7.84 16.28L10.09 16.28L10.09 17.8L9.1 17.8L9.1 17.8C8.95 17.8 8.82 17.93 8.82 18.08C8.82 18.24 8.95 18.37 9.1 18.37L9.1 18.37L10.09 18.37L10.09 19.24C10.09 20.29 10.94 21.15 11.99 21.15L22.53 21.15C23.58 21.15 24.44 20.29 24.44 19.24L24.44 12.75C24.44 12.27 24.26 11.83 23.96 11.5ZM22.53 11.4C22.82 11.4 23.08 11.5 23.3 11.65L23.3 11.65L17.93 15.81C17.75 15.96 17.52 16.04 17.26 16.04C17.01 16.04 16.77 15.96 16.59 15.81L16.59 15.81L11.22 11.65C11.44 11.5 11.71 11.4 11.99 11.4L22.53 11.4ZM23.87 19.24C23.87 19.98 23.27 20.58 22.53 20.58L11.99 20.58C11.25 20.58 10.65 19.98 10.65 19.24L10.65 18.36L13.4 18.36L13.4 18.36C13.56 18.36 13.68 18.24 13.68 18.08C13.68 17.93 13.56 17.8 13.4 17.8L13.4 17.8L10.65 17.8L10.65 12.75C10.65 12.5 10.72 12.26 10.85 12.06L10.84 12.06L16.25 16.26C16.52 16.47 16.88 16.6 17.26 16.6C17.65 16.6 18 16.47 18.28 16.25L18.28 16.26L23.68 12.06C23.8 12.26 23.87 12.5 23.88 12.75L23.87 19.24Z" fill="#21A038" fill-opacity="1.000000" fill-rule="nonzero"/>
		<circle id="Ellipse 21" cx="16.000000" cy="16.000000" r="15.750000" stroke="#21A038" stroke-opacity="1.000000" stroke-width="0.500000"/>
	</g>
</svg>
