<svg width="32.000000" height="32.000000" viewBox="0 0 32 32" fill="none" xmlns="http://www.w3.org/2000/svg" xmlns:xlink="http://www.w3.org/1999/xlink">
	<desc>
			Created with Pixso.
	</desc>
	<defs>
		<clipPath id="clip1_72">
			<rect id="footer-phone 1" width="32.000000" height="32.000000" fill="white" fill-opacity="0"/>
		</clipPath>
	</defs>
	<rect id="footer-phone 1" width="32.000000" height="32.000000" fill="#FFFFFF" fill-opacity="0"/>
	<g clip-path="url(#clip1_72)">
		<path id="Vector" d="M17.91 19.4L20.52 15.85C21.14 15.05 21.51 14.03 21.51 12.93C21.51 12.92 21.51 12.91 21.51 12.91L21.51 12.91C21.5 11.35 20.84 9.95 19.79 8.96L19.78 8.96C18.82 8.07 17.53 7.52 16.11 7.52C13.25 7.52 10.9 9.76 10.73 12.59L10.73 12.6C10.73 12.69 10.72 12.8 10.72 12.91C10.72 14.11 11.12 15.23 11.78 16.12L11.77 16.11L14.04 19.41C10.23 19.61 6.55 20.45 6.55 21.91C6.55 23.58 11.42 24.47 16 24.47C20.57 24.47 25.44 23.58 25.44 21.91C25.44 20.41 21.73 19.58 17.91 19.4ZM11.29 12.63C11.44 10.2 13.36 8.26 15.77 8.09L15.79 8.09C15.9 8.08 16.01 8.08 16.12 8.08C16.12 8.08 16.13 8.08 16.14 8.08C17.4 8.08 18.55 8.57 19.4 9.37L19.4 9.37C20.35 10.26 20.94 11.52 20.95 12.91L20.95 12.91C20.95 13.89 20.62 14.78 20.08 15.5L20.08 15.49L15.92 21.16L12.23 15.78C11.64 15 11.28 14 11.28 12.93C11.28 12.82 11.29 12.72 11.29 12.62L11.29 12.63L11.29 12.63ZM16 23.91C10.49 23.91 7.11 22.75 7.11 21.91C7.11 21.61 7.64 21.12 9.13 20.7C10.7 20.27 12.51 20 14.38 19.95L14.41 19.95L15.38 21.36L12.82 21.36C12.66 21.36 12.54 21.49 12.54 21.64C12.54 21.8 12.66 21.92 12.82 21.92L18.93 21.92C19.08 21.92 19.21 21.8 19.21 21.64C19.21 21.49 19.08 21.36 18.93 21.36L16.47 21.36L17.51 19.95C22.06 20.11 24.88 21.09 24.88 21.91C24.88 22.75 21.5 23.91 16 23.91Z" fill="#21A038" fill-opacity="1.000000" fill-rule="nonzero"/>
		<path id="Vector" d="M17.28 13.03C17.28 13.67 16.76 14.19 16.12 14.19C15.48 14.19 14.96 13.67 14.96 13.03C14.96 12.39 15.48 11.87 16.12 11.87C16.76 11.87 17.28 12.39 17.28 13.03Z" fill="#21A038" fill-opacity="1.000000" fill-rule="nonzero"/>
		<circle id="Ellipse 21" cx="16.000000" cy="16.000000" r="15.750000" stroke="#21A038" stroke-opacity="1.000000" stroke-width="0.500000"/>
	</g>
</svg>
