<svg width="32.000000" height="32.000000" viewBox="0 0 32 32" fill="none" xmlns="http://www.w3.org/2000/svg" xmlns:xlink="http://www.w3.org/1999/xlink">
	<desc>
			Created with Pixso.
	</desc>
	<defs>
		<clipPath id="clip1_52">
			<rect id="footer-phone 1" width="32.000000" height="32.000000" fill="white" fill-opacity="0"/>
		</clipPath>
	</defs>
	<rect id="footer-phone 1" width="32.000000" height="32.000000" fill="#FFFFFF" fill-opacity="0"/>
	<g clip-path="url(#clip1_52)">
		<circle id="Ellipse 21" cx="16.000000" cy="16.000000" r="15.750000" stroke="#21A038" stroke-opacity="1.000000" stroke-width="0.500000"/>
		<path id="Vector" d="M14.56 15.55C14.56 15.82 14.35 16.03 14.09 16.03C13.83 16.03 13.62 15.82 13.62 15.55C13.62 15.29 13.83 15.08 14.09 15.08C14.35 15.08 14.56 15.29 14.56 15.55Z" fill="#21A038" fill-opacity="1.000000" fill-rule="nonzero"/>
		<path id="Vector" d="M16.64 15.55C16.64 15.82 16.43 16.03 16.17 16.03C15.91 16.03 15.69 15.82 15.69 15.55C15.69 15.29 15.91 15.08 16.17 15.08C16.43 15.08 16.64 15.29 16.64 15.55Z" fill="#21A038" fill-opacity="1.000000" fill-rule="nonzero"/>
		<path id="Vector" d="M18.72 15.55C18.72 15.82 18.51 16.03 18.25 16.03C17.98 16.03 17.77 15.82 17.77 15.55C17.77 15.29 17.98 15.08 18.25 15.08C18.51 15.08 18.72 15.29 18.72 15.55Z" fill="#21A038" fill-opacity="1.000000" fill-rule="nonzero"/>
		<path id="Vector" d="M14.09 16.99C13.83 16.99 13.62 17.2 13.62 17.46C13.62 17.73 13.83 17.94 14.09 17.94C14.35 17.94 14.56 17.73 14.56 17.46C14.56 17.2 14.35 16.99 14.09 16.99Z" fill="#21A038" fill-opacity="1.000000" fill-rule="nonzero"/>
		<path id="Vector" d="M16.17 16.99C15.91 16.99 15.69 17.2 15.69 17.46C15.69 17.73 15.91 17.94 16.17 17.94C16.43 17.94 16.64 17.73 16.64 17.46C16.64 17.2 16.43 16.99 16.17 16.99Z" fill="#21A038" fill-opacity="1.000000" fill-rule="nonzero"/>
		<path id="Vector" d="M18.25 16.99C17.98 16.99 17.77 17.2 17.77 17.46C17.77 17.73 17.98 17.94 18.25 17.94C18.51 17.94 18.72 17.73 18.72 17.46C18.72 17.2 18.51 16.99 18.25 16.99Z" fill="#21A038" fill-opacity="1.000000" fill-rule="nonzero"/>
		<path id="Vector" d="M14.56 19.26C14.56 19.52 14.35 19.74 14.09 19.74C13.83 19.74 13.62 19.52 13.62 19.26C13.62 19 13.83 18.79 14.09 18.79C14.35 18.79 14.56 19 14.56 19.26Z" fill="#21A038" fill-opacity="1.000000" fill-rule="nonzero"/>
		<path id="Vector" d="M16.64 19.26C16.64 19.52 16.43 19.74 16.17 19.74C15.91 19.74 15.69 19.52 15.69 19.26C15.69 19 15.91 18.79 16.17 18.79C16.43 18.79 16.64 19 16.64 19.26Z" fill="#21A038" fill-opacity="1.000000" fill-rule="nonzero"/>
		<path id="Vector" d="M18.72 19.26C18.72 19.52 18.51 19.74 18.25 19.74C17.98 19.74 17.77 19.52 17.77 19.26C17.77 19 17.98 18.79 18.25 18.79C18.51 18.79 18.72 19 18.72 19.26Z" fill="#21A038" fill-opacity="1.000000" fill-rule="nonzero"/>
		<path id="Vector" d="M24.33 12.6C24.32 12.59 24.32 12.59 24.32 12.58C23.63 10.49 21.69 9 19.4 9L12.66 9C10.37 9 8.43 10.49 7.75 12.55L7.74 12.58C7.74 12.59 7.74 12.59 7.74 12.6C7.58 13.06 7.5 13.6 7.5 14.16C7.5 14.53 7.8 14.84 8.17 14.84L11.17 14.84L9.79 17.13C9.28 17.96 8.98 18.97 8.98 20.04L8.98 20.69C8.98 21.58 9.7 22.3 10.6 22.3L21.88 22.3C22.77 22.3 23.5 21.58 23.5 20.69C23.5 20.68 23.5 20.68 23.5 20.68C23.5 19.2 23.04 17.84 22.25 16.72L22.26 16.74L20.93 14.84L23.9 14.84C24.27 14.84 24.57 14.54 24.57 14.17C24.57 13.61 24.48 13.07 24.32 12.56L24.33 12.6L24.33 12.6ZM12.66 9.56L19.4 9.56C21.31 9.56 22.95 10.72 23.65 12.38L23.66 12.41L19.76 12.41C19.32 11.91 18.67 11.59 17.94 11.59C17.94 11.59 17.94 11.59 17.94 11.59L14.04 11.59C13.32 11.59 12.67 11.91 12.23 12.41L12.23 12.42L8.4 12.42C9.11 10.73 10.75 9.56 12.66 9.56L12.66 9.56ZM8.06 14.16C8.06 13.74 8.12 13.33 8.22 12.94L8.22 12.98L11.86 12.98C11.74 13.22 11.66 13.5 11.63 13.8L11.63 13.8C11.62 13.98 11.57 14.14 11.49 14.28L11.49 14.27L8.17 14.27C8.11 14.27 8.06 14.22 8.06 14.16L8.06 14.16ZM22.94 20.68C22.94 21.27 22.47 21.74 21.88 21.74L10.6 21.74C10.02 21.74 9.54 21.27 9.54 20.68L9.54 20.04C9.54 19.07 9.81 18.17 10.28 17.4L10.27 17.42L11.86 14.78C11.92 14.73 11.97 14.66 11.97 14.58C12.09 14.37 12.17 14.12 12.19 13.86L12.19 13.85C12.28 12.9 13.07 12.16 14.04 12.15L17.94 12.15C18.93 12.15 19.74 12.93 19.79 13.9L19.79 13.91C19.8 14.11 19.87 14.29 19.97 14.44L19.97 14.44L21.8 17.06C22.51 18.07 22.94 19.32 22.94 20.68C22.94 20.68 22.94 20.68 22.94 20.69L22.94 20.68ZM23.91 14.27L20.54 14.27L20.43 14.12C20.38 14.05 20.36 13.97 20.35 13.88L20.35 13.88C20.33 13.55 20.25 13.24 20.12 12.96L20.12 12.98L23.85 12.98C23.95 13.33 24.01 13.74 24.01 14.17L24.01 14.17C24.01 14.23 23.96 14.27 23.91 14.27Z" fill="#21A038" fill-opacity="1.000000" fill-rule="nonzero"/>
	</g>
</svg>
