<svg width="25.000000" height="25.000000" viewBox="0 0 25 25" fill="none" xmlns="http://www.w3.org/2000/svg" xmlns:xlink="http://www.w3.org/1999/xlink">
	<desc>
			Created with Pixso.
	</desc>
	<defs/>
	<circle id="Ellipse 33" cx="12.500000" cy="12.500000" r="12.500000" fill="#FFFFFF" fill-opacity="1.000000"/>
	<path id="₽" d="M18.74 10.13C18.75 12.67 16.84 14.26 13.8 14.26L11.44 14.26L11.44 15.1L14.29 15.1L14.29 17.32L11.44 17.32L11.44 19L8.68 19L8.68 17.32L6.83 17.32L6.83 15.1L8.68 15.1L8.68 14.26L6.83 14.26L6.83 12.04L8.68 12.04L8.68 5.9L13.8 5.9C16.91 5.9 18.75 7.71 18.74 10.13ZM11.44 8.15L11.44 12.04L13.73 12.04C15.28 12.04 15.98 11.31 15.98 10.16C15.98 9.04 15.26 8.15 13.8 8.15L11.44 8.15Z" fill="#21A038" fill-opacity="1.000000" fill-rule="evenodd"/>
</svg>
