<svg width="88.888916" height="88.888916" viewBox="0 0 88.8889 88.8889" fill="none" xmlns="http://www.w3.org/2000/svg" xmlns:xlink="http://www.w3.org/1999/xlink">
	<desc>
			Created with Pixso.
	</desc>
	<defs/>
	<path id="Vector" d="M44.44 0C35.65 0 27.06 2.6 19.75 7.49C12.44 12.37 6.74 19.31 3.38 27.43C0.01 35.55 -0.87 44.49 0.85 53.11C2.56 61.73 6.8 69.65 13.01 75.87C19.23 82.08 27.15 86.32 35.77 88.03C44.39 89.74 53.33 88.86 61.45 85.5C69.57 82.14 76.51 76.44 81.39 69.13C86.28 61.82 88.88 53.23 88.88 44.44C88.88 32.65 84.2 21.35 75.87 13.01C67.53 4.68 56.23 0 44.44 0ZM73.47 29.52L36.97 66L15.41 44.44C14.68 43.7 14.26 42.7 14.26 41.66C14.26 40.62 14.68 39.62 15.41 38.88C16.15 38.15 17.15 37.73 18.19 37.73C19.23 37.73 20.23 38.15 20.97 38.88L37.02 54.94L67.97 24.02C68.33 23.66 68.77 23.37 69.24 23.17C69.72 22.97 70.23 22.87 70.75 22.87C71.26 22.87 71.77 22.97 72.25 23.17C72.73 23.37 73.16 23.66 73.52 24.02C73.89 24.39 74.18 24.82 74.37 25.3C74.57 25.77 74.67 26.28 74.67 26.8C74.67 27.32 74.57 27.83 74.37 28.3C74.18 28.78 73.89 29.21 73.52 29.58L73.47 29.52Z" fill="#21A038" fill-opacity="1.000000" fill-rule="nonzero"/>
	<path id="Vector" d="M73.47 29.52L36.97 66L15.41 44.44C14.68 43.7 14.26 42.7 14.26 41.66C14.26 40.62 14.68 39.62 15.41 38.88C16.15 38.15 17.15 37.73 18.19 37.73C19.23 37.73 20.23 38.15 20.97 38.88L37.02 54.94L67.97 24.02C68.33 23.66 68.77 23.37 69.24 23.17C69.72 22.97 70.23 22.87 70.75 22.87C71.26 22.87 71.77 22.97 72.25 23.17C72.73 23.37 73.16 23.66 73.52 24.02C73.89 24.39 74.18 24.82 74.37 25.3C74.57 25.77 74.67 26.28 74.67 26.8C74.67 27.32 74.57 27.83 74.37 28.3C74.18 28.78 73.89 29.21 73.52 29.58L73.47 29.52Z" fill="#FFFFFF" fill-opacity="1.000000" fill-rule="nonzero"/>
</svg>
