<svg width="50.000000" height="50.000000" viewBox="0 0 50 50" fill="none" xmlns="http://www.w3.org/2000/svg" xmlns:xlink="http://www.w3.org/1999/xlink">
	<desc>
			Created with Pixso.
	</desc>
	<defs>
		<clipPath id="clip1_83">
			<rect id="ic:round-telegram" width="50.000000" height="50.000000" fill="white" fill-opacity="0"/>
		</clipPath>
	</defs>
	<rect id="ic:round-telegram" width="50.000000" height="50.000000" fill="#FFFFFF" fill-opacity="0"/>
	<g clip-path="url(#clip1_83)">
		<path id="Vector" d="M25 4.16C13.5 4.16 4.16 13.5 4.16 25C4.16 36.5 13.5 45.83 25 45.83C36.5 45.83 45.83 36.5 45.83 25C45.83 13.5 36.5 4.16 25 4.16ZM34.66 18.33C34.35 21.62 33 29.62 32.31 33.31C32.02 34.87 31.43 35.39 30.89 35.45C29.68 35.56 28.77 34.66 27.6 33.89C25.77 32.68 24.72 31.93 22.95 30.77C20.89 29.41 22.22 28.66 23.41 27.45C23.72 27.14 29.06 22.29 29.16 21.85C29.18 21.78 29.17 21.71 29.16 21.65C29.14 21.58 29.1 21.52 29.06 21.47C28.93 21.37 28.77 21.41 28.62 21.43C28.43 21.47 25.52 23.41 19.83 27.25C19 27.81 18.25 28.1 17.58 28.08C16.83 28.06 15.41 27.66 14.35 27.31C13.04 26.89 12.02 26.66 12.1 25.93C12.14 25.56 12.66 25.18 13.64 24.79C19.72 22.14 23.77 20.39 25.79 19.56C31.58 17.14 32.77 16.72 33.56 16.72C33.72 16.72 34.12 16.77 34.37 16.97C34.58 17.14 34.64 17.37 34.66 17.54C34.64 17.66 34.68 18.04 34.66 18.33Z" fill="#999999" fill-opacity="1.000000" fill-rule="nonzero"/>
	</g>
</svg>
