<svg width="50.000000" height="50.000000" viewBox="0 0 50 50" fill="none" xmlns="http://www.w3.org/2000/svg" xmlns:xlink="http://www.w3.org/1999/xlink">
	<desc>
			Created with Pixso.
	</desc>
	<defs>
		<clipPath id="clip1_81">
			<rect id="uil:vk" width="50.000000" height="50.000000" fill="white" fill-opacity="0"/>
		</clipPath>
	</defs>
	<rect id="uil:vk" width="50.000000" height="50.000000" fill="#FFFFFF" fill-opacity="0"/>
	<g clip-path="url(#clip1_81)">
		<path id="Vector" d="M31.4 4.16L18.61 4.16C6.94 4.16 4.16 6.94 4.16 18.59L4.16 31.38C4.16 43.05 6.92 45.83 18.59 45.83L31.38 45.83C43.05 45.83 45.83 43.07 45.83 31.4L45.83 18.61C45.83 6.94 43.07 4.16 31.4 4.16ZM37.8 33.89L34.76 33.89C33.61 33.89 33.26 32.96 31.2 30.9C29.4 29.16 28.64 28.95 28.18 28.95C27.56 28.95 27.38 29.12 27.38 29.99L27.38 32.72C27.38 33.46 27.14 33.89 25.21 33.89C23.34 33.77 21.52 33.2 19.91 32.23C18.3 31.27 16.94 29.93 15.95 28.34C13.59 25.4 11.94 21.95 11.15 18.27C11.15 17.81 11.32 17.4 12.19 17.4L15.23 17.4C16.01 17.4 16.29 17.75 16.6 18.55C18.07 22.89 20.59 26.67 21.61 26.67C22 26.67 22.17 26.49 22.17 25.52L22.17 21.05C22.04 19.01 20.96 18.83 20.96 18.1C20.97 17.9 21.06 17.72 21.21 17.59C21.35 17.46 21.54 17.39 21.74 17.4L26.51 17.4C27.17 17.4 27.38 17.72 27.38 18.51L27.38 24.54C27.38 25.19 27.66 25.41 27.86 25.41C28.25 25.41 28.55 25.19 29.27 24.47C30.81 22.6 32.07 20.51 33 18.27C33.1 18 33.28 17.77 33.52 17.61C33.76 17.45 34.04 17.38 34.33 17.4L37.37 17.4C38.28 17.4 38.47 17.86 38.28 18.51C37.17 20.98 35.8 23.33 34.2 25.52C33.87 26.02 33.74 26.28 34.2 26.86C34.5 27.32 35.56 28.21 36.28 29.05C37.32 30.09 38.19 31.29 38.84 32.61C39.1 33.46 38.67 33.89 37.8 33.89Z" fill="#999999" fill-opacity="1.000000" fill-rule="nonzero"/>
	</g>
</svg>
