<svg width="25.000000" height="25.000000" viewBox="0 0 25 25" fill="none" xmlns="http://www.w3.org/2000/svg" xmlns:xlink="http://www.w3.org/1999/xlink">
	<desc>
			Created with Pixso.
	</desc>
	<defs/>
	<circle id="Ellipse 33" cx="12.500000" cy="12.500000" r="12.500000" fill="#FFFFFF" fill-opacity="1.000000"/>
	<path id="Vector" d="M9.16 8.33C9.16 7.44 9.51 6.6 10.14 5.97C10.76 5.35 11.61 5 12.5 5C13.38 5 14.23 5.35 14.85 5.97C15.48 6.6 15.83 7.44 15.83 8.33C15.83 9.21 15.48 10.06 14.85 10.69C14.23 11.31 13.38 11.66 12.5 11.66C11.61 11.66 10.76 11.31 10.14 10.69C9.51 10.06 9.16 9.21 9.16 8.33ZM9.16 13.33C8.06 13.33 7 13.77 6.22 14.55C5.43 15.33 5 16.39 5 17.5C5 18.16 5.26 18.79 5.73 19.26C6.2 19.73 6.83 20 7.5 20L17.5 20C18.16 20 18.79 19.73 19.26 19.26C19.73 18.79 20 18.16 20 17.5C20 16.39 19.56 15.33 18.77 14.55C17.99 13.77 16.93 13.33 15.83 13.33L9.16 13.33Z" fill="#21A038" fill-opacity="1.000000" fill-rule="evenodd"/>
</svg>
