<svg width="50.000000" height="50.000000" viewBox="0 0 50 50" fill="none" xmlns="http://www.w3.org/2000/svg" xmlns:xlink="http://www.w3.org/1999/xlink">
	<desc>
			Created with Pixso.
	</desc>
	<defs>
		<clipPath id="clip1_79">
			<rect id="bi:youtube" width="50.000000" height="50.000000" fill="white" fill-opacity="0"/>
		</clipPath>
	</defs>
	<rect id="bi:youtube" width="50.000000" height="50.000000" fill="#FFFFFF" fill-opacity="0"/>
	<g clip-path="url(#clip1_79)">
		<path id="Vector" d="M25.15 6.24L25.43 6.24C28 6.25 41.02 6.35 44.53 7.29C45.59 7.58 46.55 8.14 47.33 8.92C48.11 9.7 48.66 10.66 48.95 11.73C49.26 12.91 49.49 14.49 49.64 16.11L49.67 16.43L49.74 17.25L49.76 17.57C49.96 20.43 49.99 23.1 49.99 23.69L49.99 23.92C49.99 24.53 49.96 27.38 49.74 30.36L49.71 30.69L49.68 31.01C49.53 32.8 49.3 34.57 48.95 35.88C48.66 36.94 48.11 37.91 47.33 38.69C46.55 39.47 45.59 40.03 44.53 40.32C40.9 41.29 27.12 41.36 25.21 41.36L24.77 41.36C23.8 41.36 19.81 41.35 15.62 41.2L15.09 41.18L14.82 41.17L14.29 41.15L13.75 41.13C10.28 40.97 6.98 40.73 5.46 40.31C4.4 40.03 3.43 39.47 2.65 38.69C1.88 37.91 1.32 36.94 1.04 35.88C0.69 34.58 0.46 32.8 0.3 31.01L0.28 30.68L0.25 30.36C0.1 28.24 0.01 26.12 0 24L0 23.61C0 22.94 0.03 20.62 0.2 18.05L0.22 17.73L0.23 17.57L0.25 17.25L0.32 16.43L0.35 16.11C0.5 14.49 0.72 12.91 1.04 11.73C1.32 10.66 1.88 9.69 2.66 8.92C3.43 8.14 4.4 7.58 5.46 7.29C6.98 6.88 10.29 6.63 13.75 6.48L14.29 6.45L14.82 6.44L15.09 6.43L15.63 6.4C18.6 6.31 21.58 6.26 24.55 6.25L25.15 6.25L25.15 6.24ZM20 16.27L20 31.33L32.99 23.8L20 16.27Z" fill="#999999" fill-opacity="1.000000" fill-rule="nonzero"/>
	</g>
</svg>
